<svg xmlns="http://www.w3.org/2000/svg" xmlns:xlink="http://www.w3.org/1999/xlink" width="1044" zoomAndPan="magnify" viewBox="0 0 782.88 714.749996" height="953" preserveAspectRatio="xMidYMid meet" version="1.0"><defs><clipPath id="c500ac278c"><path d="M 34 0 L 748 0 L 748 713.75 L 34 713.75 Z M 34 0 " clip-rule="nonzero"/></clipPath><clipPath id="8bebf0f77e"><path d="M 287.980469 253.675781 L 494.523438 253.675781 L 494.523438 460.21875 L 287.980469 460.21875 Z M 287.980469 253.675781 " clip-rule="nonzero"/></clipPath><clipPath id="98346b3c58"><path d="M 391.253906 253.675781 C 334.21875 253.675781 287.980469 299.914062 287.980469 356.949219 C 287.980469 413.984375 334.21875 460.21875 391.253906 460.21875 C 448.289062 460.21875 494.523438 413.984375 494.523438 356.949219 C 494.523438 299.914062 448.289062 253.675781 391.253906 253.675781 Z M 391.253906 253.675781 " clip-rule="nonzero"/></clipPath><clipPath id="daec2218f0"><path d="M 0.980469 0.675781 L 207.523438 0.675781 L 207.523438 207.21875 L 0.980469 207.21875 Z M 0.980469 0.675781 " clip-rule="nonzero"/></clipPath><clipPath id="ad18412c5f"><path d="M 104.253906 0.675781 C 47.21875 0.675781 0.980469 46.914062 0.980469 103.949219 C 0.980469 160.984375 47.21875 207.21875 104.253906 207.21875 C 161.289062 207.21875 207.523438 160.984375 207.523438 103.949219 C 207.523438 46.914062 161.289062 0.675781 104.253906 0.675781 Z M 104.253906 0.675781 " clip-rule="nonzero"/></clipPath><clipPath id="079aec0dc9"><rect x="0" width="208" y="0" height="208"/></clipPath><clipPath id="60c822bbf2"><path d="M 309.949219 311 L 366 311 L 366 381 L 309.949219 381 Z M 309.949219 311 " clip-rule="nonzero"/></clipPath><clipPath id="d17e1709f4"><path d="M 330 275.644531 L 400 275.644531 L 400 348 L 330 348 Z M 330 275.644531 " clip-rule="nonzero"/></clipPath><clipPath id="b339d49ef3"><path d="M 416 332 L 472.640625 332 L 472.640625 404 L 416 404 Z M 416 332 " clip-rule="nonzero"/></clipPath></defs><g clip-path="url(#c500ac278c)"><path fill="#ffffff" d="M 643.394531 104.816406 C 598.316406 59.738281 544.085938 29.378906 486.613281 13.527344 C 465.621094 7.742188 444.226562 3.855469 422.652344 1.957031 C 400.921875 0.0625 379.042969 0.0898438 357.34375 2.140625 L 402.300781 47.097656 L 444.226562 89.027344 L 551.707031 196.507812 C 640.183594 284.980469 640.183594 428.941406 551.707031 517.414062 C 536.957031 532.167969 520.675781 544.378906 503.355469 554.203125 L 475.902344 526.75 C 493.804688 517.84375 510.605469 506.09375 525.511719 491.21875 C 599.539062 417.1875 599.539062 296.734375 525.511719 222.703125 L 312.234375 9.425781 C 295.21875 13.25 278.449219 18.363281 262.042969 24.695312 L 368.605469 131.257812 L 405.148438 167.859375 L 492.765625 255.480469 C 548.738281 311.453125 548.738281 402.53125 492.765625 458.503906 C 477.554688 473.714844 459.714844 484.640625 440.707031 491.585938 L 410.746094 461.625 C 431.222656 457.832031 450.777344 448.097656 466.566406 432.308594 C 508.097656 390.777344 508.097656 323.203125 466.566406 281.675781 L 398.75 213.859375 L 355.507812 170.613281 L 324.964844 140.074219 L 288.667969 103.746094 L 260.515625 75.589844 L 225.933594 41.007812 C 211.976562 48.292969 198.449219 56.648438 185.351562 65.921875 C 169.132812 77.398438 153.617188 90.3125 139.109375 104.816406 C 0.078125 243.851562 0.078125 470.070312 139.109375 609.105469 C 184.1875 654.152344 238.417969 684.542969 295.890625 700.363281 C 316.886719 706.148438 338.277344 710.035156 359.851562 711.933594 C 381.582031 713.828125 403.464844 713.800781 425.160156 711.75 L 380.203125 666.824219 L 338.277344 624.894531 L 230.796875 517.414062 C 142.324219 428.941406 142.324219 284.980469 230.796875 196.507812 C 245.546875 181.753906 261.828125 169.542969 279.152344 159.71875 L 306.601562 187.171875 C 288.699219 196.078125 271.898438 207.828125 256.996094 222.703125 C 182.964844 296.734375 182.964844 417.1875 256.996094 491.21875 L 344.703125 578.929688 L 470.269531 704.496094 C 487.285156 700.671875 504.058594 695.558594 520.460938 689.222656 L 484.132812 652.898438 L 413.898438 582.664062 L 377.359375 546.121094 L 289.742188 458.503906 C 233.765625 402.53125 233.765625 311.453125 289.742188 255.480469 C 304.949219 240.269531 322.792969 229.34375 341.796875 222.398438 L 371.757812 252.359375 C 351.285156 256.152344 331.726562 265.882812 315.9375 281.675781 C 274.40625 323.203125 274.40625 390.777344 315.9375 432.308594 L 556.574219 672.945312 C 570.527344 665.660156 584.054688 657.304688 597.152344 648.03125 C 613.375 636.554688 628.890625 623.640625 643.394531 609.136719 C 782.429688 470.070312 782.429688 243.851562 643.394531 104.816406 Z M 198.050781 163.761719 C 91.519531 270.292969 91.519531 443.628906 198.050781 550.160156 L 301.921875 654.03125 C 254.269531 639.800781 209.40625 613.910156 171.855469 576.359375 C 50.878906 455.382812 50.878906 258.539062 171.855469 137.5625 C 186.421875 122.996094 202.089844 110.234375 218.617188 99.1875 L 245.425781 125.996094 C 228.59375 136.582031 212.679688 149.132812 198.050781 163.761719 Z M 348.683594 399.53125 C 325.210938 376.058594 325.210938 337.863281 348.683594 314.390625 C 372.15625 290.917969 410.347656 290.917969 433.820312 314.390625 C 457.296875 337.863281 457.296875 376.058594 433.820312 399.53125 C 410.347656 423.003906 372.15625 423.003906 348.683594 399.53125 Z M 610.648438 576.359375 C 596.082031 590.925781 580.414062 603.6875 563.886719 614.734375 L 537.078125 587.925781 C 553.878906 577.308594 569.792969 564.757812 584.421875 550.132812 C 690.953125 443.601562 690.953125 270.261719 584.421875 163.730469 L 480.554688 59.859375 C 528.203125 74.089844 573.070312 99.980469 610.621094 137.53125 C 731.625 258.539062 731.625 455.382812 610.648438 576.359375 Z M 610.648438 576.359375 " fill-opacity="1" fill-rule="nonzero"/></g><g clip-path="url(#8bebf0f77e)"><g clip-path="url(#98346b3c58)"><g transform="matrix(1, 0, 0, 1, 287, 253)"><g clip-path="url(#079aec0dc9)"><g clip-path="url(#daec2218f0)"><g clip-path="url(#ad18412c5f)"><path fill="#ffffff" d="M 0.980469 0.675781 L 207.523438 0.675781 L 207.523438 207.21875 L 0.980469 207.21875 Z M 0.980469 0.675781 " fill-opacity="1" fill-rule="nonzero"/></g></g></g></g></g></g><g clip-path="url(#60c822bbf2)"><path fill="#f9f1ee" d="M 365.566406 380.773438 L 323.761719 311.390625 C 314.992188 324.359375 309.863281 339.980469 309.863281 356.78125 C 309.863281 365.128906 311.132812 373.1875 313.484375 380.773438 Z M 365.566406 380.773438 " fill-opacity="1" fill-rule="nonzero"/></g><path fill="#f9f1ee" d="M 383.132812 322.34375 L 464.621094 322.34375 C 454.15625 300.082031 433.878906 283.328125 409.390625 277.664062 Z M 383.132812 322.34375 " fill-opacity="1" fill-rule="nonzero"/><g clip-path="url(#d17e1709f4)"><path fill="#f9f1ee" d="M 356.972656 347.488281 L 399.015625 275.953125 C 396.40625 275.695312 393.761719 275.558594 391.085938 275.558594 C 366.867188 275.558594 345.109375 286.222656 330.214844 303.089844 Z M 356.972656 347.488281 " fill-opacity="1" fill-rule="nonzero"/></g><path fill="#f9f1ee" d="M 373.910156 435.445312 L 399.628906 390.589844 L 317.265625 390.589844 C 328.066406 414.082031 349.75 431.5625 375.824219 436.546875 Z M 373.910156 435.445312 " fill-opacity="1" fill-rule="nonzero"/><g clip-path="url(#b339d49ef3)"><path fill="#f9f1ee" d="M 416.480469 332.15625 L 457.535156 403.402344 C 466.828125 390.191406 472.308594 374.121094 472.308594 356.78125 C 472.308594 348.199219 470.960938 339.929688 468.480469 332.15625 Z M 416.480469 332.15625 " fill-opacity="1" fill-rule="nonzero"/></g><path fill="#f9f1ee" d="M 424.847656 366.34375 L 383.949219 437.671875 C 386.300781 437.878906 388.679688 438 391.085938 438 C 414.75 438 436.078125 427.824219 450.9375 411.617188 Z M 424.847656 366.34375 " fill-opacity="1" fill-rule="nonzero"/></svg>