<svg xmlns="http://www.w3.org/2000/svg" xmlns:xlink="http://www.w3.org/1999/xlink" width="249" zoomAndPan="magnify" viewBox="0 0 186.75 99.749996" height="133" preserveAspectRatio="xMidYMid meet" version="1.0"><defs><g/><clipPath id="9dd23accfe"><path d="M 2 0.417969 L 36 0.417969 L 36 38 L 2 38 Z M 2 0.417969 " clip-rule="nonzero"/></clipPath><clipPath id="fbbd445460"><path d="M 35 0.417969 L 77 0.417969 L 77 38 L 35 38 Z M 35 0.417969 " clip-rule="nonzero"/></clipPath><clipPath id="9cfc44dd9c"><path d="M 75 0.417969 L 110 0.417969 L 110 38 L 75 38 Z M 75 0.417969 " clip-rule="nonzero"/></clipPath><clipPath id="633289e2f8"><rect x="0" width="145" y="0" height="51"/></clipPath></defs><g transform="matrix(1, 0, 0, 1, 20, 24)"><g clip-path="url(#633289e2f8)"><g clip-path="url(#9dd23accfe)"><g fill="#175873" fill-opacity="1"><g transform="translate(1.156675, 37.807544)"><g><path d="M 33.8125 -37.015625 C 33.84375 -36.742188 33.84375 -36.488281 33.8125 -36.25 C 32.863281 -35.8125 32.191406 -34.78125 31.796875 -33.15625 C 31.410156 -31.53125 31.140625 -29.3125 30.984375 -26.5 C 30.835938 -23.6875 30.660156 -20.269531 30.453125 -16.25 C 30.453125 -16.007812 30.441406 -15.445312 30.421875 -14.5625 C 30.410156 -13.6875 30.40625 -12.640625 30.40625 -11.421875 C 30.40625 -10.203125 30.394531 -8.929688 30.375 -7.609375 C 30.363281 -6.296875 30.359375 -5.0625 30.359375 -3.90625 C 30.359375 -2.757812 30.359375 -1.828125 30.359375 -1.109375 C 30.359375 -0.398438 30.359375 -0.046875 30.359375 -0.046875 L 28.734375 -0.046875 L 6.546875 -28.078125 C 6.242188 -28.378906 5.988281 -28.273438 5.78125 -27.765625 C 5.71875 -27.597656 5.675781 -27.425781 5.65625 -27.25 C 5.644531 -27.082031 5.644531 -26.742188 5.65625 -26.234375 C 5.675781 -25.734375 5.6875 -24.890625 5.6875 -23.703125 C 5.75 -20.015625 5.90625 -16.910156 6.15625 -14.390625 C 6.414062 -11.867188 6.75 -9.8125 7.15625 -8.21875 C 7.5625 -6.632812 8.007812 -5.390625 8.5 -4.484375 C 8.988281 -3.585938 9.519531 -2.921875 10.09375 -2.484375 C 10.675781 -2.046875 11.269531 -1.71875 11.875 -1.5 C 12.488281 -1.28125 13.097656 -1.035156 13.703125 -0.765625 C 13.703125 -0.523438 13.691406 -0.335938 13.671875 -0.203125 C 13.660156 -0.0664062 13.65625 0 13.65625 0 C 13.65625 0 13.25 0 12.4375 0 C 11.625 0 10.613281 0 9.40625 0 C 8.207031 0 7 0 5.78125 0 C 4.5625 0 3.546875 0 2.734375 0 C 1.921875 0 1.5 0 1.46875 0 C 1.46875 -0.164062 1.46875 -0.289062 1.46875 -0.375 C 1.46875 -0.457031 1.484375 -0.601562 1.515625 -0.8125 C 2.503906 -1.351562 3.191406 -2.441406 3.578125 -4.078125 C 3.960938 -5.722656 4.210938 -8.035156 4.328125 -11.015625 C 4.453125 -13.992188 4.617188 -17.71875 4.828125 -22.1875 C 4.828125 -22.351562 4.832031 -22.882812 4.84375 -23.78125 C 4.863281 -24.675781 4.875 -25.722656 4.875 -26.921875 C 4.875 -28.128906 4.875 -29.320312 4.875 -30.5 C 4.875 -31.6875 4.875 -32.671875 4.875 -33.453125 C 4.875 -34.234375 4.875 -34.625 4.875 -34.625 C 4.632812 -34.726562 4.25 -34.90625 3.71875 -35.15625 C 3.195312 -35.40625 2.707031 -35.628906 2.25 -35.828125 C 1.800781 -36.035156 1.578125 -36.140625 1.578125 -36.140625 L 1.578125 -36.859375 C 1.578125 -36.859375 1.929688 -36.859375 2.640625 -36.859375 C 3.347656 -36.859375 4.25 -36.859375 5.34375 -36.859375 C 6.445312 -36.859375 7.582031 -36.859375 8.75 -36.859375 C 9.925781 -36.859375 10.96875 -36.859375 11.875 -36.859375 C 11.875 -36.859375 12.160156 -36.484375 12.734375 -35.734375 C 13.316406 -34.992188 14.085938 -34.015625 15.046875 -32.796875 C 16.015625 -31.578125 17.082031 -30.222656 18.25 -28.734375 C 19.414062 -27.242188 20.59375 -25.742188 21.78125 -24.234375 C 22.96875 -22.734375 24.078125 -21.332031 25.109375 -20.03125 C 26.140625 -18.726562 27 -17.644531 27.6875 -16.78125 C 28.382812 -15.914062 28.800781 -15.378906 28.9375 -15.171875 C 29.207031 -14.835938 29.390625 -14.695312 29.484375 -14.75 C 29.585938 -14.800781 29.609375 -15.332031 29.546875 -16.34375 C 29.410156 -19.664062 29.25 -22.398438 29.0625 -24.546875 C 28.875 -26.691406 28.628906 -28.414062 28.328125 -29.71875 C 28.023438 -31.019531 27.59375 -32.039062 27.03125 -32.78125 C 26.46875 -33.53125 25.75 -34.148438 24.875 -34.640625 C 24 -35.140625 22.898438 -35.675781 21.578125 -36.25 C 21.546875 -36.382812 21.535156 -36.546875 21.546875 -36.734375 C 21.566406 -36.921875 21.578125 -37.015625 21.578125 -37.015625 C 21.578125 -37.015625 22.007812 -37.015625 22.875 -37.015625 C 23.738281 -37.015625 24.820312 -37.003906 26.125 -36.984375 C 27.425781 -36.960938 28.734375 -36.953125 30.046875 -36.953125 C 31.535156 -36.953125 32.515625 -36.953125 32.984375 -36.953125 C 33.460938 -36.953125 33.710938 -36.960938 33.734375 -36.984375 C 33.753906 -37.003906 33.78125 -37.015625 33.8125 -37.015625 Z M 33.8125 -37.015625 "/></g></g></g></g><g clip-path="url(#fbbd445460)"><g fill="#175873" fill-opacity="1"><g transform="translate(34.305823, 37.807544)"><g><path d="M 41.78125 -0.703125 L 41.78125 0 L 25.53125 0.046875 L 25.53125 -0.703125 L 28.015625 -2.484375 C 28.015625 -2.484375 27.851562 -2.921875 27.53125 -3.796875 C 27.21875 -4.679688 26.789062 -5.867188 26.25 -7.359375 C 25.707031 -8.847656 25.097656 -10.472656 24.421875 -12.234375 L 12.484375 -12.234375 C 12.554688 -10.171875 12.796875 -8.285156 13.203125 -6.578125 C 13.609375 -4.867188 14.234375 -3.492188 15.078125 -2.453125 C 15.921875 -1.421875 17.035156 -0.859375 18.421875 -0.765625 C 18.460938 -0.585938 18.460938 -0.441406 18.421875 -0.328125 C 18.390625 -0.210938 18.390625 -0.117188 18.421875 -0.046875 C 18.359375 -0.046875 17.882812 -0.046875 17 -0.046875 C 16.125 -0.046875 15.023438 -0.046875 13.703125 -0.046875 C 12.390625 -0.046875 11.003906 -0.046875 9.546875 -0.046875 C 8.085938 -0.046875 6.710938 -0.046875 5.421875 -0.046875 C 4.140625 -0.046875 3.082031 -0.046875 2.25 -0.046875 C 1.425781 -0.046875 1 -0.046875 0.96875 -0.046875 C 0.96875 -0.148438 0.96875 -0.25 0.96875 -0.34375 C 0.96875 -0.445312 0.96875 -0.585938 0.96875 -0.765625 C 2.25 -1.304688 3.351562 -2.015625 4.28125 -2.890625 C 5.21875 -3.773438 6.066406 -5.003906 6.828125 -6.578125 C 7.585938 -8.148438 8.378906 -10.226562 9.203125 -12.8125 C 10.035156 -15.40625 11 -18.671875 12.09375 -22.609375 C 13.195312 -26.554688 14.53125 -31.335938 16.09375 -36.953125 L 28.6875 -36.90625 L 28.625 -36.203125 L 25.4375 -34.578125 L 38.28125 -2.390625 Z M 12.484375 -13.140625 L 24.0625 -13.140625 C 23.25 -15.273438 22.425781 -17.476562 21.59375 -19.75 C 20.769531 -22.019531 19.992188 -24.132812 19.265625 -26.09375 C 18.535156 -28.050781 17.941406 -29.648438 17.484375 -30.890625 C 17.023438 -32.128906 16.78125 -32.78125 16.75 -32.84375 C 16.507812 -33.726562 16.320312 -34.148438 16.1875 -34.109375 C 16.050781 -34.078125 15.882812 -33.722656 15.6875 -33.046875 C 14.769531 -29.765625 14.003906 -26.378906 13.390625 -22.890625 C 12.785156 -19.410156 12.484375 -16.160156 12.484375 -13.140625 Z M 12.484375 -13.140625 "/></g></g></g></g><g clip-path="url(#9cfc44dd9c)"><g fill="#175873" fill-opacity="1"><g transform="translate(75.323518, 37.807544)"><g><path d="M 33.046875 -3 C 33.316406 -3.164062 33.523438 -3.144531 33.671875 -2.9375 C 33.828125 -2.738281 33.820312 -2.535156 33.65625 -2.328125 C 32.601562 -1.378906 31.476562 -0.742188 30.28125 -0.421875 C 29.082031 -0.109375 27.769531 0.015625 26.34375 -0.046875 C 24.28125 -0.117188 22.613281 -0.550781 21.34375 -1.34375 C 20.070312 -2.132812 19.320312 -3.53125 19.09375 -5.53125 C 18.820312 -8.132812 18.394531 -10.144531 17.8125 -11.5625 C 17.238281 -12.988281 16.613281 -13.972656 15.9375 -14.515625 C 15.257812 -15.054688 14.625 -15.25 14.03125 -15.09375 C 13.4375 -14.945312 12.972656 -14.566406 12.640625 -13.953125 L 12.734375 -2.328125 L 16.296875 -0.8125 L 16.296875 0.046875 C 16.296875 0.046875 15.9375 0.0351562 15.21875 0.015625 C 14.507812 0.00390625 13.554688 0 12.359375 0 C 11.160156 0 9.832031 0 8.375 0 C 6.175781 0 4.296875 0.00390625 2.734375 0.015625 C 1.179688 0.0351562 0.40625 0.046875 0.40625 0.046875 L 0.40625 -0.8125 L 4.109375 -2.328125 L 4.0625 -31.46875 C 4.0625 -32.113281 4.085938 -32.789062 4.140625 -33.5 C 4.191406 -34.21875 4.21875 -34.578125 4.21875 -34.578125 L 0.359375 -36.203125 L 0.359375 -36.90625 C 0.359375 -36.90625 0.710938 -36.90625 1.421875 -36.90625 C 2.128906 -36.90625 3.066406 -36.90625 4.234375 -36.90625 C 5.398438 -36.90625 6.675781 -36.90625 8.0625 -36.90625 C 9.457031 -36.90625 10.863281 -36.90625 12.28125 -36.90625 C 13.707031 -36.90625 14.992188 -36.90625 16.140625 -36.90625 C 18.066406 -36.875 19.875 -36.78125 21.5625 -36.625 C 23.257812 -36.476562 24.769531 -36.148438 26.09375 -35.640625 C 27.414062 -35.128906 28.484375 -34.316406 29.296875 -33.203125 C 30.109375 -32.085938 30.613281 -30.5625 30.8125 -28.625 C 30.945312 -27.070312 30.679688 -25.78125 30.015625 -24.75 C 29.359375 -23.71875 28.445312 -22.851562 27.28125 -22.15625 C 26.113281 -21.46875 24.816406 -20.851562 23.390625 -20.3125 C 21.972656 -19.769531 20.550781 -19.226562 19.125 -18.6875 C 17.707031 -18.144531 16.425781 -17.484375 15.28125 -16.703125 C 17.414062 -17.109375 19.226562 -17.132812 20.71875 -16.78125 C 22.207031 -16.425781 23.441406 -15.804688 24.421875 -14.921875 C 25.398438 -14.046875 26.203125 -13.039062 26.828125 -11.90625 C 27.453125 -10.769531 27.957031 -9.617188 28.34375 -8.453125 C 28.738281 -7.285156 29.078125 -6.226562 29.359375 -5.28125 C 29.648438 -4.332031 29.945312 -3.617188 30.25 -3.140625 C 30.519531 -2.703125 30.941406 -2.457031 31.515625 -2.40625 C 32.097656 -2.351562 32.609375 -2.550781 33.046875 -3 Z M 15.84375 -36.09375 C 14.957031 -36.0625 14.203125 -35.664062 13.578125 -34.90625 C 12.953125 -34.144531 12.640625 -33 12.640625 -31.46875 L 12.640625 -15.890625 C 13.648438 -17.003906 14.617188 -17.914062 15.546875 -18.625 C 16.484375 -19.34375 17.347656 -19.972656 18.140625 -20.515625 C 18.941406 -21.054688 19.644531 -21.617188 20.25 -22.203125 C 20.863281 -22.796875 21.363281 -23.523438 21.75 -24.390625 C 22.144531 -25.253906 22.390625 -26.378906 22.484375 -27.765625 C 22.617188 -29.421875 22.332031 -30.890625 21.625 -32.171875 C 20.914062 -33.460938 20.023438 -34.457031 18.953125 -35.15625 C 17.890625 -35.851562 16.851562 -36.164062 15.84375 -36.09375 Z M 15.84375 -36.09375 "/></g></g></g></g><g fill="#175873" fill-opacity="1"><g transform="translate(108.320375, 37.807544)"><g><path d="M 35.4375 -18.78125 C 35.4375 -15.664062 34.910156 -12.945312 33.859375 -10.625 C 32.804688 -8.3125 31.429688 -6.375 29.734375 -4.8125 C 28.046875 -3.257812 26.1875 -2.082031 24.15625 -1.28125 C 22.132812 -0.488281 20.15625 -0.0625 18.21875 0 C 17 0.03125 15.628906 -0.128906 14.109375 -0.484375 C 12.585938 -0.835938 11.066406 -1.445312 9.546875 -2.3125 C 8.023438 -3.175781 6.617188 -4.316406 5.328125 -5.734375 C 4.046875 -7.160156 3.003906 -8.894531 2.203125 -10.9375 C 1.410156 -12.988281 1.015625 -15.398438 1.015625 -18.171875 C 1.015625 -21.222656 1.492188 -23.890625 2.453125 -26.171875 C 3.421875 -28.453125 4.722656 -30.367188 6.359375 -31.921875 C 8.003906 -33.484375 9.847656 -34.660156 11.890625 -35.453125 C 13.941406 -36.253906 16.050781 -36.679688 18.21875 -36.734375 C 20.382812 -36.785156 22.488281 -36.445312 24.53125 -35.71875 C 26.582031 -34.988281 28.429688 -33.878906 30.078125 -32.390625 C 31.722656 -30.898438 33.023438 -29.019531 33.984375 -26.75 C 34.953125 -24.488281 35.4375 -21.832031 35.4375 -18.78125 Z M 11.0625 -18.375 C 11.0625 -16.28125 11.238281 -14.207031 11.59375 -12.15625 C 11.957031 -10.113281 12.46875 -8.253906 13.125 -6.578125 C 13.78125 -4.898438 14.546875 -3.550781 15.421875 -2.53125 C 16.304688 -1.519531 17.257812 -1 18.28125 -0.96875 C 19.257812 -0.925781 20.296875 -1.546875 21.390625 -2.828125 C 22.492188 -4.117188 23.441406 -6.078125 24.234375 -8.703125 C 25.035156 -11.328125 25.4375 -14.617188 25.4375 -18.578125 C 25.4375 -22.265625 25.078125 -25.382812 24.359375 -27.9375 C 23.648438 -30.5 22.726562 -32.445312 21.59375 -33.78125 C 20.46875 -35.125 19.296875 -35.796875 18.078125 -35.796875 C 16.921875 -35.796875 15.800781 -35.140625 14.71875 -33.828125 C 13.632812 -32.523438 12.753906 -30.585938 12.078125 -28.015625 C 11.398438 -25.453125 11.0625 -22.238281 11.0625 -18.375 Z M 11.0625 -18.375 "/></g></g></g></g></g><g fill="#175873" fill-opacity="1"><g transform="translate(30.654876, 77.587445)"><g><path d="M 7.015625 -7.515625 C 7.109375 -7.453125 7.160156 -7.367188 7.171875 -7.265625 C 7.191406 -7.171875 7.171875 -7.078125 7.109375 -6.984375 C 7.054688 -6.921875 6.984375 -6.882812 6.890625 -6.875 C 6.804688 -6.863281 6.726562 -6.878906 6.65625 -6.921875 C 6.363281 -7.117188 6.046875 -7.269531 5.703125 -7.375 C 5.367188 -7.476562 5.007812 -7.53125 4.625 -7.53125 C 4.15625 -7.53125 3.71875 -7.445312 3.3125 -7.28125 C 2.90625 -7.113281 2.550781 -6.875 2.25 -6.5625 C 1.945312 -6.25 1.710938 -5.878906 1.546875 -5.453125 C 1.378906 -5.035156 1.296875 -4.570312 1.296875 -4.0625 C 1.296875 -3.53125 1.378906 -3.050781 1.546875 -2.625 C 1.722656 -2.195312 1.960938 -1.828125 2.265625 -1.515625 C 2.566406 -1.210938 2.921875 -0.976562 3.328125 -0.8125 C 3.734375 -0.644531 4.164062 -0.5625 4.625 -0.5625 C 5 -0.5625 5.351562 -0.613281 5.6875 -0.71875 C 6.03125 -0.832031 6.347656 -0.984375 6.640625 -1.171875 C 6.722656 -1.210938 6.804688 -1.226562 6.890625 -1.21875 C 6.984375 -1.207031 7.054688 -1.164062 7.109375 -1.09375 C 7.179688 -1.007812 7.207031 -0.914062 7.1875 -0.8125 C 7.164062 -0.71875 7.113281 -0.644531 7.03125 -0.59375 C 6.832031 -0.46875 6.601562 -0.347656 6.34375 -0.234375 C 6.082031 -0.128906 5.800781 -0.046875 5.5 0.015625 C 5.207031 0.078125 4.914062 0.109375 4.625 0.109375 C 4.070312 0.109375 3.550781 0.0078125 3.0625 -0.1875 C 2.570312 -0.382812 2.132812 -0.664062 1.75 -1.03125 C 1.375 -1.40625 1.082031 -1.847656 0.875 -2.359375 C 0.664062 -2.867188 0.5625 -3.4375 0.5625 -4.0625 C 0.5625 -4.664062 0.664062 -5.21875 0.875 -5.71875 C 1.082031 -6.226562 1.367188 -6.664062 1.734375 -7.03125 C 2.109375 -7.40625 2.539062 -7.695312 3.03125 -7.90625 C 3.53125 -8.113281 4.0625 -8.21875 4.625 -8.21875 C 5.0625 -8.21875 5.484375 -8.15625 5.890625 -8.03125 C 6.304688 -7.90625 6.679688 -7.734375 7.015625 -7.515625 Z M 7.015625 -7.515625 "/></g></g></g><g fill="#175873" fill-opacity="1"><g transform="translate(40.793626, 77.587445)"><g><path d="M 1.484375 0 C 1.367188 0 1.273438 -0.03125 1.203125 -0.09375 C 1.128906 -0.164062 1.09375 -0.25 1.09375 -0.34375 L 1.09375 -7.765625 C 1.09375 -7.859375 1.125 -7.9375 1.1875 -8 C 1.257812 -8.070312 1.34375 -8.109375 1.4375 -8.109375 L 4.5625 -8.109375 C 5.007812 -8.109375 5.40625 -8.015625 5.75 -7.828125 C 6.09375 -7.640625 6.363281 -7.378906 6.5625 -7.046875 C 6.757812 -6.710938 6.859375 -6.335938 6.859375 -5.921875 C 6.859375 -5.585938 6.796875 -5.273438 6.671875 -4.984375 C 6.554688 -4.703125 6.382812 -4.460938 6.15625 -4.265625 C 5.925781 -4.066406 5.675781 -3.921875 5.40625 -3.828125 L 5 -3.953125 C 5.28125 -3.929688 5.546875 -3.835938 5.796875 -3.671875 C 6.046875 -3.515625 6.242188 -3.300781 6.390625 -3.03125 C 6.546875 -2.757812 6.625 -2.429688 6.625 -2.046875 C 6.632812 -1.710938 6.648438 -1.453125 6.671875 -1.265625 C 6.703125 -1.078125 6.742188 -0.9375 6.796875 -0.84375 C 6.859375 -0.75 6.929688 -0.675781 7.015625 -0.625 C 7.085938 -0.582031 7.140625 -0.515625 7.171875 -0.421875 C 7.203125 -0.335938 7.191406 -0.257812 7.140625 -0.1875 C 7.109375 -0.125 7.0625 -0.078125 7 -0.046875 C 6.945312 -0.0234375 6.890625 -0.015625 6.828125 -0.015625 C 6.765625 -0.015625 6.703125 -0.03125 6.640625 -0.0625 C 6.535156 -0.125 6.425781 -0.21875 6.3125 -0.34375 C 6.195312 -0.476562 6.101562 -0.671875 6.03125 -0.921875 C 5.957031 -1.179688 5.921875 -1.539062 5.921875 -2 C 5.921875 -2.300781 5.875 -2.546875 5.78125 -2.734375 C 5.6875 -2.929688 5.5625 -3.082031 5.40625 -3.1875 C 5.257812 -3.289062 5.09375 -3.363281 4.90625 -3.40625 C 4.726562 -3.445312 4.554688 -3.46875 4.390625 -3.46875 L 1.6875 -3.46875 L 1.8125 -3.625 L 1.8125 -0.34375 C 1.8125 -0.25 1.78125 -0.164062 1.71875 -0.09375 C 1.664062 -0.03125 1.585938 0 1.484375 0 Z M 1.6875 -4.109375 L 4.609375 -4.109375 C 4.867188 -4.128906 5.113281 -4.210938 5.34375 -4.359375 C 5.570312 -4.515625 5.757812 -4.722656 5.90625 -4.984375 C 6.050781 -5.242188 6.125 -5.550781 6.125 -5.90625 C 6.125 -6.34375 5.972656 -6.707031 5.671875 -7 C 5.378906 -7.289062 4.992188 -7.4375 4.515625 -7.4375 L 1.734375 -7.4375 L 1.8125 -7.59375 L 1.8125 -3.9375 Z M 1.6875 -4.109375 "/></g></g></g><g fill="#175873" fill-opacity="1"><g transform="translate(51.129305, 77.587445)"><g><path d="M 1.4375 -8.109375 L 5.6875 -8.109375 C 5.78125 -8.109375 5.863281 -8.078125 5.9375 -8.015625 C 6.007812 -7.953125 6.046875 -7.867188 6.046875 -7.765625 C 6.046875 -7.660156 6.007812 -7.578125 5.9375 -7.515625 C 5.863281 -7.460938 5.78125 -7.4375 5.6875 -7.4375 L 1.703125 -7.4375 L 1.8125 -7.625 L 1.8125 -4.375 L 1.6875 -4.515625 L 5.171875 -4.515625 C 5.265625 -4.515625 5.34375 -4.476562 5.40625 -4.40625 C 5.476562 -4.34375 5.515625 -4.265625 5.515625 -4.171875 C 5.515625 -4.066406 5.476562 -3.984375 5.40625 -3.921875 C 5.34375 -3.867188 5.265625 -3.84375 5.171875 -3.84375 L 1.71875 -3.84375 L 1.8125 -3.953125 L 1.8125 -0.609375 L 1.765625 -0.6875 L 5.6875 -0.6875 C 5.78125 -0.6875 5.863281 -0.648438 5.9375 -0.578125 C 6.007812 -0.503906 6.046875 -0.425781 6.046875 -0.34375 C 6.046875 -0.238281 6.007812 -0.15625 5.9375 -0.09375 C 5.863281 -0.03125 5.78125 0 5.6875 0 L 1.4375 0 C 1.34375 0 1.257812 -0.03125 1.1875 -0.09375 C 1.125 -0.164062 1.09375 -0.25 1.09375 -0.34375 L 1.09375 -7.765625 C 1.09375 -7.859375 1.125 -7.9375 1.1875 -8 C 1.257812 -8.070312 1.34375 -8.109375 1.4375 -8.109375 Z M 1.4375 -8.109375 "/></g></g></g><g fill="#175873" fill-opacity="1"><g transform="translate(60.283402, 77.587445)"><g><path d="M 3.796875 -7.21875 L 0.984375 -0.21875 C 0.953125 -0.144531 0.910156 -0.0859375 0.859375 -0.046875 C 0.804688 -0.00390625 0.742188 0.015625 0.671875 0.015625 C 0.566406 0.015625 0.484375 -0.0078125 0.421875 -0.0625 C 0.367188 -0.125 0.34375 -0.203125 0.34375 -0.296875 C 0.332031 -0.328125 0.332031 -0.367188 0.34375 -0.421875 L 3.40625 -7.921875 C 3.445312 -8.003906 3.492188 -8.0625 3.546875 -8.09375 C 3.609375 -8.132812 3.675781 -8.15625 3.75 -8.15625 C 3.832031 -8.15625 3.898438 -8.128906 3.953125 -8.078125 C 4.015625 -8.035156 4.0625 -7.984375 4.09375 -7.921875 L 7.140625 -0.46875 C 7.160156 -0.414062 7.171875 -0.367188 7.171875 -0.328125 C 7.171875 -0.210938 7.132812 -0.125 7.0625 -0.0625 C 6.988281 -0.0078125 6.90625 0.015625 6.8125 0.015625 C 6.738281 0.015625 6.671875 -0.00390625 6.609375 -0.046875 C 6.554688 -0.0859375 6.515625 -0.144531 6.484375 -0.21875 L 3.59375 -7.265625 Z M 1.65625 -2.34375 L 1.953125 -3.03125 L 5.546875 -3.03125 L 5.6875 -2.34375 Z M 1.65625 -2.34375 "/></g></g></g><g fill="#175873" fill-opacity="1"><g transform="translate(70.352644, 77.587445)"><g><path d="M 3.5 0 C 3.394531 0 3.304688 -0.03125 3.234375 -0.09375 C 3.171875 -0.164062 3.140625 -0.25 3.140625 -0.34375 L 3.140625 -7.734375 L 3.859375 -7.734375 L 3.859375 -0.34375 C 3.859375 -0.25 3.820312 -0.164062 3.75 -0.09375 C 3.6875 -0.03125 3.601562 0 3.5 0 Z M 0.734375 -7.453125 C 0.648438 -7.453125 0.570312 -7.484375 0.5 -7.546875 C 0.425781 -7.609375 0.390625 -7.691406 0.390625 -7.796875 C 0.390625 -7.890625 0.425781 -7.960938 0.5 -8.015625 C 0.570312 -8.078125 0.648438 -8.109375 0.734375 -8.109375 L 6.265625 -8.109375 C 6.359375 -8.109375 6.4375 -8.078125 6.5 -8.015625 C 6.570312 -7.960938 6.609375 -7.882812 6.609375 -7.78125 C 6.609375 -7.675781 6.570312 -7.59375 6.5 -7.53125 C 6.4375 -7.476562 6.359375 -7.453125 6.265625 -7.453125 Z M 0.734375 -7.453125 "/></g></g></g><g fill="#175873" fill-opacity="1"><g transform="translate(79.923771, 77.587445)"><g><path d="M 1.8125 -0.359375 C 1.8125 -0.253906 1.773438 -0.164062 1.703125 -0.09375 C 1.628906 -0.03125 1.546875 0 1.453125 0 C 1.335938 0 1.25 -0.03125 1.1875 -0.09375 C 1.125 -0.164062 1.09375 -0.253906 1.09375 -0.359375 L 1.09375 -7.75 C 1.09375 -7.851562 1.125 -7.9375 1.1875 -8 C 1.257812 -8.070312 1.347656 -8.109375 1.453125 -8.109375 C 1.546875 -8.109375 1.628906 -8.070312 1.703125 -8 C 1.773438 -7.9375 1.8125 -7.851562 1.8125 -7.75 Z M 1.8125 -0.359375 "/></g></g></g><g fill="#175873" fill-opacity="1"><g transform="translate(85.39408, 77.587445)"><g><path d="M 6.953125 -8.125 C 7.066406 -8.125 7.15625 -8.09375 7.21875 -8.03125 C 7.28125 -7.96875 7.3125 -7.890625 7.3125 -7.796875 C 7.3125 -7.742188 7.300781 -7.6875 7.28125 -7.625 L 4.1875 -0.234375 C 4.144531 -0.148438 4.09375 -0.0859375 4.03125 -0.046875 C 3.96875 -0.015625 3.90625 0 3.84375 0 C 3.78125 0 3.71875 -0.015625 3.65625 -0.046875 C 3.59375 -0.0859375 3.550781 -0.144531 3.53125 -0.21875 L 0.4375 -7.609375 C 0.425781 -7.628906 0.414062 -7.65625 0.40625 -7.6875 C 0.40625 -7.71875 0.40625 -7.753906 0.40625 -7.796875 C 0.40625 -7.890625 0.441406 -7.96875 0.515625 -8.03125 C 0.585938 -8.09375 0.660156 -8.125 0.734375 -8.125 C 0.898438 -8.125 1.019531 -8.039062 1.09375 -7.875 L 3.984375 -0.9375 L 3.78125 -0.9375 L 6.625 -7.890625 C 6.707031 -8.046875 6.816406 -8.125 6.953125 -8.125 Z M 6.953125 -8.125 "/></g></g></g><g fill="#175873" fill-opacity="1"><g transform="translate(95.671849, 77.587445)"><g><path d="M 1.4375 -8.109375 L 5.6875 -8.109375 C 5.78125 -8.109375 5.863281 -8.078125 5.9375 -8.015625 C 6.007812 -7.953125 6.046875 -7.867188 6.046875 -7.765625 C 6.046875 -7.660156 6.007812 -7.578125 5.9375 -7.515625 C 5.863281 -7.460938 5.78125 -7.4375 5.6875 -7.4375 L 1.703125 -7.4375 L 1.8125 -7.625 L 1.8125 -4.375 L 1.6875 -4.515625 L 5.171875 -4.515625 C 5.265625 -4.515625 5.34375 -4.476562 5.40625 -4.40625 C 5.476562 -4.34375 5.515625 -4.265625 5.515625 -4.171875 C 5.515625 -4.066406 5.476562 -3.984375 5.40625 -3.921875 C 5.34375 -3.867188 5.265625 -3.84375 5.171875 -3.84375 L 1.71875 -3.84375 L 1.8125 -3.953125 L 1.8125 -0.609375 L 1.765625 -0.6875 L 5.6875 -0.6875 C 5.78125 -0.6875 5.863281 -0.648438 5.9375 -0.578125 C 6.007812 -0.503906 6.046875 -0.425781 6.046875 -0.34375 C 6.046875 -0.238281 6.007812 -0.15625 5.9375 -0.09375 C 5.863281 -0.03125 5.78125 0 5.6875 0 L 1.4375 0 C 1.34375 0 1.257812 -0.03125 1.1875 -0.09375 C 1.125 -0.164062 1.09375 -0.25 1.09375 -0.34375 L 1.09375 -7.765625 C 1.09375 -7.859375 1.125 -7.9375 1.1875 -8 C 1.257812 -8.070312 1.34375 -8.109375 1.4375 -8.109375 Z M 1.4375 -8.109375 "/></g></g></g><g fill="#175873" fill-opacity="1"><g transform="translate(104.825945, 77.587445)"><g/></g></g><g fill="#175873" fill-opacity="1"><g transform="translate(110.562692, 77.587445)"><g><path d="M 1.4375 -8.109375 C 1.488281 -8.109375 1.539062 -8.097656 1.59375 -8.078125 C 1.65625 -8.054688 1.707031 -8.019531 1.75 -7.96875 L 4.953125 -3.171875 L 4.640625 -3.171875 L 7.84375 -7.96875 C 7.925781 -8.082031 8.03125 -8.128906 8.15625 -8.109375 C 8.25 -8.109375 8.328125 -8.078125 8.390625 -8.015625 C 8.460938 -7.953125 8.5 -7.867188 8.5 -7.765625 L 8.5 -0.34375 C 8.5 -0.25 8.460938 -0.164062 8.390625 -0.09375 C 8.328125 -0.03125 8.242188 0 8.140625 0 C 8.023438 0 7.929688 -0.03125 7.859375 -0.09375 C 7.796875 -0.164062 7.765625 -0.25 7.765625 -0.34375 L 7.765625 -7.0625 L 7.96875 -7.03125 L 5.046875 -2.59375 C 5.023438 -2.550781 4.988281 -2.515625 4.9375 -2.484375 C 4.894531 -2.460938 4.84375 -2.453125 4.78125 -2.453125 C 4.726562 -2.453125 4.675781 -2.460938 4.625 -2.484375 C 4.570312 -2.515625 4.53125 -2.550781 4.5 -2.59375 L 1.546875 -7.078125 L 1.78125 -7.234375 L 1.78125 -0.34375 C 1.78125 -0.25 1.742188 -0.164062 1.671875 -0.09375 C 1.609375 -0.03125 1.523438 0 1.421875 0 C 1.328125 0 1.25 -0.03125 1.1875 -0.09375 C 1.125 -0.164062 1.09375 -0.25 1.09375 -0.34375 L 1.09375 -7.765625 C 1.09375 -7.859375 1.125 -7.9375 1.1875 -8 C 1.25 -8.070312 1.332031 -8.109375 1.4375 -8.109375 Z M 1.4375 -8.109375 "/></g></g></g><g fill="#175873" fill-opacity="1"><g transform="translate(122.717097, 77.587445)"><g><path d="M 1.4375 -8.109375 L 5.6875 -8.109375 C 5.78125 -8.109375 5.863281 -8.078125 5.9375 -8.015625 C 6.007812 -7.953125 6.046875 -7.867188 6.046875 -7.765625 C 6.046875 -7.660156 6.007812 -7.578125 5.9375 -7.515625 C 5.863281 -7.460938 5.78125 -7.4375 5.6875 -7.4375 L 1.703125 -7.4375 L 1.8125 -7.625 L 1.8125 -4.375 L 1.6875 -4.515625 L 5.171875 -4.515625 C 5.265625 -4.515625 5.34375 -4.476562 5.40625 -4.40625 C 5.476562 -4.34375 5.515625 -4.265625 5.515625 -4.171875 C 5.515625 -4.066406 5.476562 -3.984375 5.40625 -3.921875 C 5.34375 -3.867188 5.265625 -3.84375 5.171875 -3.84375 L 1.71875 -3.84375 L 1.8125 -3.953125 L 1.8125 -0.609375 L 1.765625 -0.6875 L 5.6875 -0.6875 C 5.78125 -0.6875 5.863281 -0.648438 5.9375 -0.578125 C 6.007812 -0.503906 6.046875 -0.425781 6.046875 -0.34375 C 6.046875 -0.238281 6.007812 -0.15625 5.9375 -0.09375 C 5.863281 -0.03125 5.78125 0 5.6875 0 L 1.4375 0 C 1.34375 0 1.257812 -0.03125 1.1875 -0.09375 C 1.125 -0.164062 1.09375 -0.25 1.09375 -0.34375 L 1.09375 -7.765625 C 1.09375 -7.859375 1.125 -7.9375 1.1875 -8 C 1.257812 -8.070312 1.34375 -8.109375 1.4375 -8.109375 Z M 1.4375 -8.109375 "/></g></g></g><g fill="#175873" fill-opacity="1"><g transform="translate(131.871194, 77.587445)"><g><path d="M 4.390625 -8.109375 C 4.960938 -8.109375 5.460938 -8 5.890625 -7.78125 C 6.316406 -7.570312 6.671875 -7.273438 6.953125 -6.890625 C 7.234375 -6.503906 7.441406 -6.066406 7.578125 -5.578125 C 7.710938 -5.097656 7.78125 -4.59375 7.78125 -4.0625 C 7.78125 -3.3125 7.65625 -2.628906 7.40625 -2.015625 C 7.164062 -1.398438 6.796875 -0.910156 6.296875 -0.546875 C 5.796875 -0.179688 5.160156 0 4.390625 0 L 1.4375 0 C 1.34375 0 1.257812 -0.03125 1.1875 -0.09375 C 1.125 -0.164062 1.09375 -0.25 1.09375 -0.34375 L 1.09375 -7.765625 C 1.09375 -7.859375 1.125 -7.9375 1.1875 -8 C 1.257812 -8.070312 1.34375 -8.109375 1.4375 -8.109375 Z M 4.28125 -0.6875 C 4.9375 -0.6875 5.460938 -0.835938 5.859375 -1.140625 C 6.265625 -1.441406 6.5625 -1.847656 6.75 -2.359375 C 6.9375 -2.867188 7.03125 -3.4375 7.03125 -4.0625 C 7.03125 -4.507812 6.976562 -4.9375 6.875 -5.34375 C 6.769531 -5.75 6.609375 -6.109375 6.390625 -6.421875 C 6.171875 -6.734375 5.882812 -6.976562 5.53125 -7.15625 C 5.1875 -7.34375 4.769531 -7.4375 4.28125 -7.4375 L 1.734375 -7.4375 L 1.8125 -7.53125 L 1.8125 -0.5625 L 1.75 -0.6875 Z M 4.28125 -0.6875 "/></g></g></g><g fill="#175873" fill-opacity="1"><g transform="translate(142.774508, 77.587445)"><g><path d="M 1.8125 -0.359375 C 1.8125 -0.253906 1.773438 -0.164062 1.703125 -0.09375 C 1.628906 -0.03125 1.546875 0 1.453125 0 C 1.335938 0 1.25 -0.03125 1.1875 -0.09375 C 1.125 -0.164062 1.09375 -0.253906 1.09375 -0.359375 L 1.09375 -7.75 C 1.09375 -7.851562 1.125 -7.9375 1.1875 -8 C 1.257812 -8.070312 1.347656 -8.109375 1.453125 -8.109375 C 1.546875 -8.109375 1.628906 -8.070312 1.703125 -8 C 1.773438 -7.9375 1.8125 -7.851562 1.8125 -7.75 Z M 1.8125 -0.359375 "/></g></g></g><g fill="#175873" fill-opacity="1"><g transform="translate(148.244817, 77.587445)"><g><path d="M 3.796875 -7.21875 L 0.984375 -0.21875 C 0.953125 -0.144531 0.910156 -0.0859375 0.859375 -0.046875 C 0.804688 -0.00390625 0.742188 0.015625 0.671875 0.015625 C 0.566406 0.015625 0.484375 -0.0078125 0.421875 -0.0625 C 0.367188 -0.125 0.34375 -0.203125 0.34375 -0.296875 C 0.332031 -0.328125 0.332031 -0.367188 0.34375 -0.421875 L 3.40625 -7.921875 C 3.445312 -8.003906 3.492188 -8.0625 3.546875 -8.09375 C 3.609375 -8.132812 3.675781 -8.15625 3.75 -8.15625 C 3.832031 -8.15625 3.898438 -8.128906 3.953125 -8.078125 C 4.015625 -8.035156 4.0625 -7.984375 4.09375 -7.921875 L 7.140625 -0.46875 C 7.160156 -0.414062 7.171875 -0.367188 7.171875 -0.328125 C 7.171875 -0.210938 7.132812 -0.125 7.0625 -0.0625 C 6.988281 -0.0078125 6.90625 0.015625 6.8125 0.015625 C 6.738281 0.015625 6.671875 -0.00390625 6.609375 -0.046875 C 6.554688 -0.0859375 6.515625 -0.144531 6.484375 -0.21875 L 3.59375 -7.265625 Z M 1.65625 -2.34375 L 1.953125 -3.03125 L 5.546875 -3.03125 L 5.6875 -2.34375 Z M 1.65625 -2.34375 "/></g></g></g></svg>