<svg xmlns="http://www.w3.org/2000/svg" xmlns:xlink="http://www.w3.org/1999/xlink" width="205" zoomAndPan="magnify" viewBox="0 0 153.75 65.249999" height="87" preserveAspectRatio="xMidYMid meet" version="1.0"><defs><g/><clipPath id="5ada09dbd1"><path d="M 103.964844 19.46875 L 107.910156 19.46875 L 107.910156 22.175781 L 103.964844 22.175781 Z M 103.964844 19.46875 " clip-rule="nonzero"/></clipPath><clipPath id="016b34e669"><path d="M 106.269531 22.109375 C 104.542969 21.140625 104.453125 19.839844 104.300781 19.839844 C 104.179688 19.839844 104.152344 20.929688 104.089844 20.929688 C 104.03125 20.929688 103.941406 20.476562 103.96875 20.261719 C 104 20.050781 104.152344 19.808594 104.332031 19.6875 C 104.515625 19.566406 104.695312 19.476562 105 19.476562 C 105.574219 19.476562 107.085938 19.871094 107.507812 20.324219 C 107.78125 20.625 107.933594 21.171875 107.8125 21.472656 C 107.691406 21.777344 107.085938 22.109375 106.785156 22.109375 C 106.511719 22.109375 106.148438 21.835938 106.027344 21.59375 C 105.90625 21.351562 105.90625 20.898438 106.027344 20.65625 C 106.148438 20.414062 106.511719 20.171875 106.785156 20.140625 C 107.054688 20.113281 107.480469 20.261719 107.660156 20.476562 C 107.84375 20.6875 107.933594 21.140625 107.871094 21.382812 C 107.84375 21.59375 107.722656 21.777344 107.507812 21.898438 C 107.175781 22.109375 106.328125 22.230469 105.785156 22.109375 C 105.179688 21.957031 104.300781 21.382812 104.089844 20.929688 C 103.941406 20.597656 104 20.082031 104.179688 19.839844 C 104.332031 19.628906 104.757812 19.476562 105 19.476562 C 105.210938 19.476562 105.511719 19.597656 105.632812 19.777344 C 105.785156 20.050781 105.511719 21.109375 105.484375 21.109375 C 105.453125 21.109375 105.242188 19.898438 105.453125 19.75 C 105.695312 19.597656 106.8125 20.203125 107.117188 20.503906 C 107.296875 20.6875 107.386719 20.898438 107.417969 21.109375 C 107.449219 21.320312 107.417969 21.59375 107.269531 21.746094 C 107.085938 21.957031 106.269531 22.109375 106.269531 22.109375 " clip-rule="nonzero"/></clipPath><clipPath id="48dae96179"><path d="M 0.964844 0.46875 L 4.910156 0.46875 L 4.910156 3.175781 L 0.964844 3.175781 Z M 0.964844 0.46875 " clip-rule="nonzero"/></clipPath><clipPath id="a4fc082882"><path d="M 3.269531 3.109375 C 1.542969 2.140625 1.453125 0.839844 1.300781 0.839844 C 1.179688 0.839844 1.152344 1.929688 1.089844 1.929688 C 1.03125 1.929688 0.941406 1.476562 0.96875 1.261719 C 1 1.050781 1.152344 0.808594 1.332031 0.6875 C 1.515625 0.566406 1.695312 0.476562 2 0.476562 C 2.574219 0.476562 4.085938 0.871094 4.507812 1.324219 C 4.78125 1.625 4.933594 2.171875 4.8125 2.472656 C 4.691406 2.777344 4.085938 3.109375 3.785156 3.109375 C 3.511719 3.109375 3.148438 2.835938 3.027344 2.59375 C 2.90625 2.351562 2.90625 1.898438 3.027344 1.65625 C 3.148438 1.414062 3.511719 1.171875 3.785156 1.140625 C 4.054688 1.113281 4.480469 1.261719 4.660156 1.476562 C 4.84375 1.6875 4.933594 2.140625 4.871094 2.382812 C 4.84375 2.59375 4.722656 2.777344 4.507812 2.898438 C 4.175781 3.109375 3.328125 3.230469 2.785156 3.109375 C 2.179688 2.957031 1.300781 2.382812 1.089844 1.929688 C 0.941406 1.597656 1 1.082031 1.179688 0.839844 C 1.332031 0.628906 1.757812 0.476562 2 0.476562 C 2.210938 0.476562 2.511719 0.597656 2.632812 0.777344 C 2.785156 1.050781 2.511719 2.109375 2.484375 2.109375 C 2.453125 2.109375 2.242188 0.898438 2.453125 0.75 C 2.695312 0.597656 3.8125 1.203125 4.117188 1.503906 C 4.296875 1.6875 4.386719 1.898438 4.417969 2.109375 C 4.449219 2.320312 4.417969 2.59375 4.269531 2.746094 C 4.085938 2.957031 3.269531 3.109375 3.269531 3.109375 " clip-rule="nonzero"/></clipPath><clipPath id="87fa856206"><rect x="0" width="5" y="0" height="4"/></clipPath><clipPath id="d66fe7943b"><rect x="0" width="72" y="0" height="34"/></clipPath><clipPath id="8df906b95c"><path d="M 124.816406 33.566406 L 127.285156 33.566406 L 127.285156 35.882812 L 124.816406 35.882812 Z M 124.816406 33.566406 " clip-rule="nonzero"/></clipPath><clipPath id="2527346127"><path d="M 127.277344 34.078125 C 127.097656 34.285156 126.679688 34.363281 126.578125 34.292969 C 126.507812 34.25 126.488281 34.113281 126.496094 34.023438 C 126.507812 33.933594 126.597656 33.796875 126.691406 33.765625 C 126.804688 33.730469 127.074219 33.785156 127.140625 33.898438 C 127.230469 34.046875 127.128906 34.496094 127.039062 34.679688 C 126.984375 34.804688 126.914062 34.847656 126.792969 34.925781 C 126.566406 35.085938 125.832031 35.480469 125.695312 35.390625 C 125.617188 35.335938 125.628906 35.074219 125.683594 34.996094 C 125.742188 34.925781 125.898438 34.925781 126.023438 34.9375 C 126.160156 34.949219 126.464844 35.019531 126.476562 35.085938 C 126.488281 35.152344 126.226562 35.355469 126.171875 35.335938 C 126.101562 35.300781 126.136719 34.894531 126.203125 34.757812 C 126.25 34.667969 126.339844 34.601562 126.417969 34.566406 C 126.507812 34.53125 126.621094 34.53125 126.710938 34.566406 C 126.8125 34.609375 126.914062 34.710938 126.960938 34.847656 C 127.027344 35.039062 127.074219 35.503906 126.960938 35.660156 C 126.859375 35.796875 126.621094 35.832031 126.417969 35.84375 C 126.179688 35.863281 125.898438 35.796875 125.652344 35.71875 C 125.390625 35.640625 124.996094 35.546875 124.894531 35.378906 C 124.816406 35.253906 124.824219 35.007812 124.90625 34.90625 C 124.984375 34.804688 125.222656 34.734375 125.335938 34.746094 C 125.425781 34.757812 125.457031 34.871094 125.570312 34.914062 C 125.773438 35.007812 126.464844 35.050781 126.476562 35.121094 C 126.476562 35.152344 126.273438 35.230469 126.273438 35.230469 C 126.273438 35.230469 126.394531 35.097656 126.488281 35.074219 C 126.589844 35.050781 126.78125 35.074219 126.871094 35.152344 C 126.960938 35.230469 127.027344 35.402344 127.015625 35.515625 C 127.007812 35.628906 126.90625 35.773438 126.804688 35.832031 C 126.699219 35.886719 126.519531 35.886719 126.417969 35.84375 C 126.316406 35.796875 126.203125 35.640625 126.191406 35.527344 C 126.179688 35.414062 126.25 35.242188 126.339844 35.164062 C 126.429688 35.085938 126.597656 35.050781 126.710938 35.074219 C 126.824219 35.097656 126.960938 35.230469 126.996094 35.335938 C 127.027344 35.445312 127.027344 35.628906 126.9375 35.71875 C 126.792969 35.863281 126.214844 35.875 125.910156 35.855469 C 125.660156 35.832031 125.425781 35.753906 125.242188 35.660156 C 125.097656 35.582031 124.960938 35.492188 124.894531 35.378906 C 124.835938 35.265625 124.804688 35.097656 124.847656 34.996094 C 124.90625 34.882812 125.121094 34.734375 125.242188 34.734375 C 125.355469 34.734375 125.4375 34.871094 125.570312 34.914062 C 125.785156 34.996094 126.226562 34.984375 126.441406 35.0625 C 126.589844 35.121094 126.792969 35.230469 126.78125 35.265625 C 126.769531 35.300781 126.476562 35.175781 126.386719 35.230469 C 126.292969 35.300781 126.304688 35.695312 126.273438 35.695312 C 126.226562 35.695312 126.125 34.9375 126.203125 34.757812 C 126.25 34.65625 126.339844 34.601562 126.417969 34.566406 C 126.507812 34.53125 126.621094 34.53125 126.710938 34.566406 C 126.8125 34.609375 126.914062 34.734375 126.960938 34.847656 C 127.007812 34.972656 126.972656 35.164062 126.960938 35.3125 C 126.949219 35.4375 126.949219 35.570312 126.882812 35.660156 C 126.804688 35.761719 126.632812 35.832031 126.453125 35.84375 C 126.171875 35.855469 125.570312 35.660156 125.34375 35.527344 C 125.222656 35.457031 125.132812 35.390625 125.097656 35.289062 C 125.0625 35.164062 125.097656 34.960938 125.210938 34.824219 C 125.414062 34.589844 126.40625 34.476562 126.542969 34.261719 C 126.609375 34.160156 126.488281 34.023438 126.519531 33.933594 C 126.542969 33.855469 126.621094 33.796875 126.691406 33.765625 C 126.757812 33.730469 126.871094 33.730469 126.9375 33.753906 C 127.007812 33.773438 127.128906 33.886719 127.117188 33.921875 C 127.097656 33.96875 126.609375 33.957031 126.589844 33.886719 C 126.566406 33.832031 126.746094 33.617188 126.859375 33.582031 C 126.960938 33.550781 127.164062 33.605469 127.230469 33.683594 C 127.300781 33.765625 127.277344 34.078125 127.277344 34.078125 " clip-rule="nonzero"/></clipPath><clipPath id="c1c59ac8ac"><path d="M 0.816406 0.566406 L 3.285156 0.566406 L 3.285156 2.882812 L 0.816406 2.882812 Z M 0.816406 0.566406 " clip-rule="nonzero"/></clipPath><clipPath id="c489f3f74e"><path d="M 3.277344 1.078125 C 3.097656 1.285156 2.679688 1.363281 2.578125 1.292969 C 2.507812 1.25 2.488281 1.113281 2.496094 1.023438 C 2.507812 0.933594 2.597656 0.796875 2.691406 0.765625 C 2.804688 0.730469 3.074219 0.785156 3.140625 0.898438 C 3.230469 1.046875 3.128906 1.496094 3.039062 1.679688 C 2.984375 1.804688 2.914062 1.847656 2.792969 1.925781 C 2.566406 2.085938 1.832031 2.480469 1.695312 2.390625 C 1.617188 2.335938 1.628906 2.074219 1.683594 1.996094 C 1.742188 1.925781 1.898438 1.925781 2.023438 1.9375 C 2.160156 1.949219 2.464844 2.019531 2.476562 2.085938 C 2.488281 2.152344 2.226562 2.355469 2.171875 2.335938 C 2.101562 2.300781 2.136719 1.894531 2.203125 1.757812 C 2.25 1.667969 2.339844 1.601562 2.417969 1.566406 C 2.507812 1.53125 2.621094 1.53125 2.710938 1.566406 C 2.8125 1.609375 2.914062 1.710938 2.960938 1.847656 C 3.027344 2.039062 3.074219 2.503906 2.960938 2.660156 C 2.859375 2.796875 2.621094 2.832031 2.417969 2.84375 C 2.179688 2.863281 1.898438 2.796875 1.652344 2.71875 C 1.390625 2.640625 0.996094 2.546875 0.894531 2.378906 C 0.816406 2.253906 0.824219 2.007812 0.90625 1.90625 C 0.984375 1.804688 1.222656 1.734375 1.335938 1.746094 C 1.425781 1.757812 1.457031 1.871094 1.570312 1.914062 C 1.773438 2.007812 2.464844 2.050781 2.476562 2.121094 C 2.476562 2.152344 2.273438 2.230469 2.273438 2.230469 C 2.273438 2.230469 2.394531 2.097656 2.488281 2.074219 C 2.589844 2.050781 2.78125 2.074219 2.871094 2.152344 C 2.960938 2.230469 3.027344 2.402344 3.015625 2.515625 C 3.007812 2.628906 2.90625 2.773438 2.804688 2.832031 C 2.699219 2.886719 2.519531 2.886719 2.417969 2.84375 C 2.316406 2.796875 2.203125 2.640625 2.191406 2.527344 C 2.179688 2.414062 2.25 2.242188 2.339844 2.164062 C 2.429688 2.085938 2.597656 2.050781 2.710938 2.074219 C 2.824219 2.097656 2.960938 2.230469 2.996094 2.335938 C 3.027344 2.445312 3.027344 2.628906 2.9375 2.71875 C 2.792969 2.863281 2.214844 2.875 1.910156 2.855469 C 1.660156 2.832031 1.425781 2.753906 1.242188 2.660156 C 1.097656 2.582031 0.960938 2.492188 0.894531 2.378906 C 0.835938 2.265625 0.804688 2.097656 0.847656 1.996094 C 0.90625 1.882812 1.121094 1.734375 1.242188 1.734375 C 1.355469 1.734375 1.4375 1.871094 1.570312 1.914062 C 1.785156 1.996094 2.226562 1.984375 2.441406 2.0625 C 2.589844 2.121094 2.792969 2.230469 2.78125 2.265625 C 2.769531 2.300781 2.476562 2.175781 2.386719 2.230469 C 2.292969 2.300781 2.304688 2.695312 2.273438 2.695312 C 2.226562 2.695312 2.125 1.9375 2.203125 1.757812 C 2.25 1.65625 2.339844 1.601562 2.417969 1.566406 C 2.507812 1.53125 2.621094 1.53125 2.710938 1.566406 C 2.8125 1.609375 2.914062 1.734375 2.960938 1.847656 C 3.007812 1.972656 2.972656 2.164062 2.960938 2.3125 C 2.949219 2.4375 2.949219 2.570312 2.882812 2.660156 C 2.804688 2.761719 2.632812 2.832031 2.453125 2.84375 C 2.171875 2.855469 1.570312 2.660156 1.34375 2.527344 C 1.222656 2.457031 1.132812 2.390625 1.097656 2.289062 C 1.0625 2.164062 1.097656 1.960938 1.210938 1.824219 C 1.414062 1.589844 2.40625 1.476562 2.542969 1.261719 C 2.609375 1.160156 2.488281 1.023438 2.519531 0.933594 C 2.542969 0.855469 2.621094 0.796875 2.691406 0.765625 C 2.757812 0.730469 2.871094 0.730469 2.9375 0.753906 C 3.007812 0.773438 3.128906 0.886719 3.117188 0.921875 C 3.097656 0.96875 2.609375 0.957031 2.589844 0.886719 C 2.566406 0.832031 2.746094 0.617188 2.859375 0.582031 C 2.960938 0.550781 3.164062 0.605469 3.230469 0.683594 C 3.300781 0.765625 3.277344 1.078125 3.277344 1.078125 " clip-rule="nonzero"/></clipPath><clipPath id="b47919127e"><rect x="0" width="4" y="0" height="3"/></clipPath><clipPath id="b4cb16edf1"><path d="M 110 16.367188 L 135 16.367188 L 135 40.835938 L 110 40.835938 Z M 110 16.367188 " clip-rule="nonzero"/></clipPath><clipPath id="6d3f144d3e"><path d="M 118.859375 24.984375 L 125.875 24.984375 L 125.875 31.996094 L 118.859375 31.996094 Z M 118.859375 24.984375 " clip-rule="nonzero"/></clipPath><clipPath id="dce86184fc"><path d="M 122.367188 24.984375 C 120.429688 24.984375 118.859375 26.550781 118.859375 28.488281 C 118.859375 30.425781 120.429688 31.996094 122.367188 31.996094 C 124.304688 31.996094 125.875 30.425781 125.875 28.488281 C 125.875 26.550781 124.304688 24.984375 122.367188 24.984375 Z M 122.367188 24.984375 " clip-rule="nonzero"/></clipPath><clipPath id="db9bbb113d"><path d="M 0.859375 0.984375 L 7.875 0.984375 L 7.875 7.996094 L 0.859375 7.996094 Z M 0.859375 0.984375 " clip-rule="nonzero"/></clipPath><clipPath id="48d356192c"><path d="M 4.367188 0.984375 C 2.429688 0.984375 0.859375 2.550781 0.859375 4.488281 C 0.859375 6.425781 2.429688 7.996094 4.367188 7.996094 C 6.304688 7.996094 7.875 6.425781 7.875 4.488281 C 7.875 2.550781 6.304688 0.984375 4.367188 0.984375 Z M 4.367188 0.984375 " clip-rule="nonzero"/></clipPath><clipPath id="0b04db629b"><rect x="0" width="8" y="0" height="8"/></clipPath><clipPath id="18661410b5"><path d="M 119.605469 26 L 122 26 L 122 30 L 119.605469 30 Z M 119.605469 26 " clip-rule="nonzero"/></clipPath><clipPath id="ac6d226bed"><path d="M 122 25.730469 L 124.796875 25.730469 L 124.796875 28 L 122 28 Z M 122 25.730469 " clip-rule="nonzero"/></clipPath><clipPath id="dfaaabd4d1"><path d="M 120 25.730469 L 123 25.730469 L 123 29 L 120 29 Z M 120 25.730469 " clip-rule="nonzero"/></clipPath><clipPath id="ac194df251"><path d="M 119.605469 29 L 123 29 L 123 30.917969 L 119.605469 30.917969 Z M 119.605469 29 " clip-rule="nonzero"/></clipPath><clipPath id="68571c9a42"><path d="M 123 27 L 124.796875 27 L 124.796875 30.917969 L 123 30.917969 Z M 123 27 " clip-rule="nonzero"/></clipPath><clipPath id="18b2068e74"><path d="M 122 28 L 124.796875 28 L 124.796875 30.917969 L 122 30.917969 Z M 122 28 " clip-rule="nonzero"/></clipPath><clipPath id="ebfa1b2456"><rect x="0" width="54" y="0" height="14"/></clipPath></defs><g clip-path="url(#5ada09dbd1)"><g clip-path="url(#016b34e669)"><g transform="matrix(1, 0, 0, 1, 103, 19)"><g clip-path="url(#87fa856206)"><g clip-path="url(#48dae96179)"><g clip-path="url(#a4fc082882)"><rect x="-136.825" width="221.4" fill="#f9f1ee" height="93.959999" y="-33.355" fill-opacity="1"/></g></g></g></g></g></g><g transform="matrix(1, 0, 0, 1, 41, 15)"><g clip-path="url(#d66fe7943b)"><g fill="#2b2b2b" fill-opacity="1"><g transform="translate(0.302104, 24.981573)"><g><path d="M 21.875 -23.9375 C 21.894531 -23.769531 21.894531 -23.609375 21.875 -23.453125 C 21.257812 -23.171875 20.828125 -22.503906 20.578125 -21.453125 C 20.328125 -20.398438 20.148438 -18.960938 20.046875 -17.140625 C 19.953125 -15.328125 19.835938 -13.117188 19.703125 -10.515625 C 19.703125 -10.359375 19.695312 -9.992188 19.6875 -9.421875 C 19.675781 -8.859375 19.671875 -8.179688 19.671875 -7.390625 C 19.671875 -6.597656 19.664062 -5.773438 19.65625 -4.921875 C 19.644531 -4.066406 19.640625 -3.265625 19.640625 -2.515625 C 19.640625 -1.773438 19.640625 -1.175781 19.640625 -0.71875 C 19.640625 -0.257812 19.640625 -0.03125 19.640625 -0.03125 L 18.59375 -0.03125 L 4.234375 -18.15625 C 4.035156 -18.351562 3.875 -18.289062 3.75 -17.96875 C 3.695312 -17.851562 3.664062 -17.738281 3.65625 -17.625 C 3.644531 -17.519531 3.644531 -17.300781 3.65625 -16.96875 C 3.664062 -16.644531 3.671875 -16.101562 3.671875 -15.34375 C 3.722656 -12.957031 3.828125 -10.945312 3.984375 -9.3125 C 4.148438 -7.675781 4.363281 -6.34375 4.625 -5.3125 C 4.894531 -4.289062 5.1875 -3.488281 5.5 -2.90625 C 5.820312 -2.320312 6.164062 -1.890625 6.53125 -1.609375 C 6.90625 -1.328125 7.289062 -1.113281 7.6875 -0.96875 C 8.082031 -0.820312 8.476562 -0.664062 8.875 -0.5 C 8.875 -0.34375 8.863281 -0.21875 8.84375 -0.125 C 8.832031 -0.0390625 8.828125 0 8.828125 0 C 8.828125 0 8.566406 0 8.046875 0 C 7.523438 0 6.875 0 6.09375 0 C 5.3125 0 4.523438 0 3.734375 0 C 2.953125 0 2.296875 0 1.765625 0 C 1.242188 0 0.972656 0 0.953125 0 C 0.953125 -0.113281 0.953125 -0.195312 0.953125 -0.25 C 0.953125 -0.300781 0.960938 -0.394531 0.984375 -0.53125 C 1.617188 -0.875 2.0625 -1.578125 2.3125 -2.640625 C 2.5625 -3.703125 2.722656 -5.195312 2.796875 -7.125 C 2.878906 -9.050781 2.988281 -11.460938 3.125 -14.359375 C 3.125 -14.460938 3.128906 -14.800781 3.140625 -15.375 C 3.148438 -15.957031 3.15625 -16.640625 3.15625 -17.421875 C 3.15625 -18.203125 3.15625 -18.972656 3.15625 -19.734375 C 3.15625 -20.503906 3.15625 -21.140625 3.15625 -21.640625 C 3.15625 -22.148438 3.15625 -22.40625 3.15625 -22.40625 C 3 -22.46875 2.75 -22.578125 2.40625 -22.734375 C 2.070312 -22.898438 1.753906 -23.050781 1.453125 -23.1875 C 1.160156 -23.320312 1.015625 -23.390625 1.015625 -23.390625 L 1.015625 -23.84375 C 1.015625 -23.84375 1.242188 -23.84375 1.703125 -23.84375 C 2.160156 -23.84375 2.742188 -23.84375 3.453125 -23.84375 C 4.171875 -23.84375 4.90625 -23.84375 5.65625 -23.84375 C 6.414062 -23.84375 7.09375 -23.84375 7.6875 -23.84375 C 7.6875 -23.84375 7.867188 -23.601562 8.234375 -23.125 C 8.609375 -22.644531 9.109375 -22.007812 9.734375 -21.21875 C 10.359375 -20.425781 11.046875 -19.546875 11.796875 -18.578125 C 12.554688 -17.617188 13.316406 -16.648438 14.078125 -15.671875 C 14.847656 -14.703125 15.566406 -13.796875 16.234375 -12.953125 C 16.910156 -12.109375 17.472656 -11.40625 17.921875 -10.84375 C 18.367188 -10.289062 18.632812 -9.945312 18.71875 -9.8125 C 18.894531 -9.59375 19.015625 -9.5 19.078125 -9.53125 C 19.148438 -9.570312 19.160156 -9.921875 19.109375 -10.578125 C 19.023438 -12.722656 18.921875 -14.488281 18.796875 -15.875 C 18.679688 -17.269531 18.523438 -18.390625 18.328125 -19.234375 C 18.128906 -20.078125 17.847656 -20.738281 17.484375 -21.21875 C 17.128906 -21.695312 16.664062 -22.09375 16.09375 -22.40625 C 15.519531 -22.726562 14.804688 -23.078125 13.953125 -23.453125 C 13.929688 -23.535156 13.925781 -23.632812 13.9375 -23.75 C 13.945312 -23.875 13.953125 -23.9375 13.953125 -23.9375 C 13.953125 -23.9375 14.234375 -23.9375 14.796875 -23.9375 C 15.359375 -23.9375 16.054688 -23.929688 16.890625 -23.921875 C 17.734375 -23.910156 18.582031 -23.90625 19.4375 -23.90625 C 20.40625 -23.90625 21.039062 -23.90625 21.34375 -23.90625 C 21.65625 -23.90625 21.816406 -23.910156 21.828125 -23.921875 C 21.835938 -23.929688 21.851562 -23.9375 21.875 -23.9375 Z M 21.875 -23.9375 "/></g></g></g><g fill="#2b2b2b" fill-opacity="1"><g transform="translate(21.745361, 24.981573)"><g><path d="M 27.03125 -0.453125 L 27.03125 0 L 16.515625 0.03125 L 16.515625 -0.453125 L 18.125 -1.609375 C 18.125 -1.609375 18.019531 -1.890625 17.8125 -2.453125 C 17.601562 -3.023438 17.320312 -3.789062 16.96875 -4.75 C 16.625 -5.71875 16.234375 -6.773438 15.796875 -7.921875 L 8.078125 -7.921875 C 8.117188 -6.578125 8.269531 -5.351562 8.53125 -4.25 C 8.800781 -3.144531 9.207031 -2.257812 9.75 -1.59375 C 10.300781 -0.925781 11.023438 -0.5625 11.921875 -0.5 C 11.941406 -0.382812 11.941406 -0.285156 11.921875 -0.203125 C 11.898438 -0.128906 11.898438 -0.0703125 11.921875 -0.03125 C 11.878906 -0.03125 11.570312 -0.03125 11 -0.03125 C 10.4375 -0.03125 9.726562 -0.03125 8.875 -0.03125 C 8.019531 -0.03125 7.117188 -0.03125 6.171875 -0.03125 C 5.234375 -0.03125 4.347656 -0.03125 3.515625 -0.03125 C 2.679688 -0.03125 1.992188 -0.03125 1.453125 -0.03125 C 0.921875 -0.03125 0.644531 -0.03125 0.625 -0.03125 C 0.625 -0.09375 0.625 -0.15625 0.625 -0.21875 C 0.625 -0.289062 0.625 -0.382812 0.625 -0.5 C 1.457031 -0.84375 2.171875 -1.296875 2.765625 -1.859375 C 3.367188 -2.429688 3.914062 -3.226562 4.40625 -4.25 C 4.90625 -5.269531 5.421875 -6.617188 5.953125 -8.296875 C 6.492188 -9.972656 7.117188 -12.082031 7.828125 -14.625 C 8.546875 -17.175781 9.40625 -20.269531 10.40625 -23.90625 L 18.5625 -23.875 L 18.53125 -23.421875 L 16.453125 -22.359375 L 24.765625 -1.546875 Z M 8.078125 -8.5 L 15.5625 -8.5 C 15.039062 -9.882812 14.507812 -11.3125 13.96875 -12.78125 C 13.4375 -14.25 12.9375 -15.613281 12.46875 -16.875 C 12 -18.144531 11.613281 -19.179688 11.3125 -19.984375 C 11.019531 -20.785156 10.863281 -21.207031 10.84375 -21.25 C 10.6875 -21.820312 10.5625 -22.09375 10.46875 -22.0625 C 10.382812 -22.039062 10.28125 -21.8125 10.15625 -21.375 C 9.5625 -19.257812 9.066406 -17.070312 8.671875 -14.8125 C 8.273438 -12.550781 8.078125 -10.445312 8.078125 -8.5 Z M 8.078125 -8.5 "/></g></g></g><g fill="#2b2b2b" fill-opacity="1"><g transform="translate(48.27856, 24.981573)"><g><path d="M 21.375 -1.9375 C 21.550781 -2.050781 21.6875 -2.039062 21.78125 -1.90625 C 21.882812 -1.769531 21.882812 -1.640625 21.78125 -1.515625 C 21.09375 -0.898438 20.359375 -0.488281 19.578125 -0.28125 C 18.804688 -0.0703125 17.960938 0.0078125 17.046875 -0.03125 C 15.710938 -0.0703125 14.632812 -0.347656 13.8125 -0.859375 C 12.988281 -1.378906 12.5 -2.285156 12.34375 -3.578125 C 12.175781 -5.265625 11.90625 -6.566406 11.53125 -7.484375 C 11.15625 -8.410156 10.75 -9.046875 10.3125 -9.390625 C 9.875 -9.742188 9.460938 -9.867188 9.078125 -9.765625 C 8.691406 -9.671875 8.390625 -9.425781 8.171875 -9.03125 L 8.25 -1.515625 L 10.546875 -0.53125 L 10.546875 0.03125 C 10.546875 0.03125 10.3125 0.0234375 9.84375 0.015625 C 9.382812 0.00390625 8.765625 0 7.984375 0 C 7.210938 0 6.359375 0 5.421875 0 C 3.992188 0 2.773438 0.00390625 1.765625 0.015625 C 0.765625 0.0234375 0.265625 0.03125 0.265625 0.03125 L 0.265625 -0.53125 L 2.65625 -1.515625 L 2.625 -20.359375 C 2.625 -20.773438 2.640625 -21.210938 2.671875 -21.671875 C 2.703125 -22.128906 2.71875 -22.359375 2.71875 -22.359375 L 0.234375 -23.421875 L 0.234375 -23.875 C 0.234375 -23.875 0.460938 -23.875 0.921875 -23.875 C 1.378906 -23.875 1.984375 -23.875 2.734375 -23.875 C 3.492188 -23.875 4.320312 -23.875 5.21875 -23.875 C 6.113281 -23.875 7.019531 -23.875 7.9375 -23.875 C 8.863281 -23.875 9.695312 -23.875 10.4375 -23.875 C 11.6875 -23.851562 12.859375 -23.789062 13.953125 -23.6875 C 15.046875 -23.59375 16.019531 -23.378906 16.875 -23.046875 C 17.726562 -22.722656 18.414062 -22.195312 18.9375 -21.46875 C 19.46875 -20.75 19.800781 -19.769531 19.9375 -18.53125 C 20.019531 -17.519531 19.847656 -16.679688 19.421875 -16.015625 C 18.992188 -15.347656 18.398438 -14.785156 17.640625 -14.328125 C 16.890625 -13.878906 16.054688 -13.476562 15.140625 -13.125 C 14.222656 -12.78125 13.300781 -12.429688 12.375 -12.078125 C 11.457031 -11.734375 10.628906 -11.3125 9.890625 -10.8125 C 11.265625 -11.070312 12.429688 -11.085938 13.390625 -10.859375 C 14.359375 -10.628906 15.160156 -10.226562 15.796875 -9.65625 C 16.429688 -9.082031 16.953125 -8.429688 17.359375 -7.703125 C 17.765625 -6.972656 18.09375 -6.226562 18.34375 -5.46875 C 18.59375 -4.707031 18.8125 -4.019531 19 -3.40625 C 19.1875 -2.800781 19.378906 -2.34375 19.578125 -2.03125 C 19.753906 -1.75 20.023438 -1.59375 20.390625 -1.5625 C 20.765625 -1.53125 21.09375 -1.65625 21.375 -1.9375 Z M 10.25 -23.359375 C 9.675781 -23.328125 9.1875 -23.066406 8.78125 -22.578125 C 8.375 -22.085938 8.171875 -21.347656 8.171875 -20.359375 L 8.171875 -10.28125 C 8.828125 -11 9.457031 -11.585938 10.0625 -12.046875 C 10.664062 -12.515625 11.222656 -12.921875 11.734375 -13.265625 C 12.253906 -13.617188 12.710938 -13.984375 13.109375 -14.359375 C 13.503906 -14.742188 13.828125 -15.21875 14.078125 -15.78125 C 14.328125 -16.34375 14.484375 -17.070312 14.546875 -17.96875 C 14.640625 -19.039062 14.453125 -19.992188 13.984375 -20.828125 C 13.523438 -21.660156 12.953125 -22.300781 12.265625 -22.75 C 11.578125 -23.195312 10.90625 -23.398438 10.25 -23.359375 Z M 10.25 -23.359375 "/></g></g></g></g></g><g clip-path="url(#8df906b95c)"><g clip-path="url(#2527346127)"><g transform="matrix(1, 0, 0, 1, 124, 33)"><g clip-path="url(#b47919127e)"><g clip-path="url(#c1c59ac8ac)"><g clip-path="url(#c489f3f74e)"><path fill="#f9f1ee" d="M 0.398438 0.132812 L 3.730469 0.132812 L 3.730469 3.304688 L 0.398438 3.304688 Z M 0.398438 0.132812 " fill-opacity="1" fill-rule="nonzero"/></g></g></g></g></g></g><g clip-path="url(#b4cb16edf1)"><path fill="#2b2b2b" d="M 130.925781 19.925781 C 129.398438 18.394531 127.554688 17.363281 125.605469 16.824219 C 124.890625 16.628906 124.164062 16.496094 123.433594 16.433594 C 122.695312 16.367188 121.953125 16.371094 121.214844 16.4375 L 122.742188 17.964844 L 124.164062 19.390625 L 127.8125 23.039062 C 130.820312 26.042969 130.820312 30.929688 127.8125 33.933594 C 127.3125 34.4375 126.761719 34.851562 126.171875 35.183594 L 125.238281 34.253906 C 125.847656 33.949219 126.417969 33.550781 126.925781 33.046875 C 129.4375 30.53125 129.4375 26.441406 126.925781 23.929688 L 119.683594 16.6875 C 119.105469 16.816406 118.535156 16.988281 117.976562 17.203125 L 121.597656 20.824219 L 122.835938 22.066406 L 125.8125 25.042969 C 127.714844 26.941406 127.714844 30.035156 125.8125 31.933594 C 125.296875 32.453125 124.691406 32.824219 124.046875 33.058594 L 123.027344 32.042969 C 123.722656 31.914062 124.386719 31.582031 124.921875 31.046875 C 126.332031 29.636719 126.332031 27.339844 124.921875 25.929688 L 117.925781 18.933594 L 116.753906 17.757812 C 116.277344 18.007812 115.820312 18.289062 115.375 18.605469 C 114.824219 18.992188 114.296875 19.433594 113.804688 19.925781 C 109.082031 24.644531 109.082031 32.328125 113.804688 37.050781 C 115.335938 38.578125 117.175781 39.609375 119.128906 40.148438 C 119.839844 40.34375 120.566406 40.476562 121.300781 40.539062 C 122.039062 40.605469 122.78125 40.605469 123.515625 40.535156 L 121.992188 39.007812 L 120.566406 37.585938 L 116.917969 33.933594 C 113.914062 30.929688 113.914062 26.042969 116.917969 23.039062 C 117.417969 22.539062 117.972656 22.125 118.558594 21.789062 L 119.492188 22.722656 C 118.882812 23.023438 118.3125 23.421875 117.808594 23.929688 C 115.292969 26.441406 115.292969 30.53125 117.808594 33.046875 L 120.785156 36.023438 L 122.515625 37.757812 L 123.691406 38.933594 L 125.050781 40.289062 C 125.625 40.15625 126.195312 39.984375 126.753906 39.769531 L 118.917969 31.933594 C 117.019531 30.035156 117.019531 26.941406 118.917969 25.042969 C 119.433594 24.523438 120.042969 24.152344 120.6875 23.917969 L 121.703125 24.933594 C 121.007812 25.0625 120.34375 25.394531 119.808594 25.929688 C 118.398438 27.339844 118.398438 29.636719 119.808594 31.046875 L 126.804688 38.042969 L 127.980469 39.214844 C 128.453125 38.96875 128.914062 38.6875 129.359375 38.371094 C 129.910156 37.980469 130.433594 37.542969 130.925781 37.050781 C 135.648438 32.328125 135.648438 24.644531 130.925781 19.925781 Z M 115.804688 21.925781 C 112.1875 25.542969 112.1875 31.429688 115.804688 35.046875 L 119.332031 38.574219 C 117.714844 38.089844 116.191406 37.210938 114.914062 35.9375 C 110.808594 31.828125 110.808594 25.144531 114.914062 21.039062 C 115.410156 20.542969 115.941406 20.109375 116.503906 19.734375 L 117.414062 20.644531 C 116.84375 21.003906 116.300781 21.429688 115.804688 21.925781 Z M 120.921875 29.933594 C 120.125 29.136719 120.125 27.839844 120.921875 27.042969 C 121.71875 26.246094 123.015625 26.246094 123.8125 27.042969 C 124.609375 27.839844 124.609375 29.136719 123.8125 29.933594 C 123.015625 30.730469 121.71875 30.730469 120.921875 29.933594 Z M 129.816406 35.9375 C 129.320312 36.433594 128.789062 36.863281 128.226562 37.238281 L 127.316406 36.328125 C 127.886719 35.96875 128.429688 35.542969 128.925781 35.046875 C 132.542969 31.429688 132.542969 25.542969 128.925781 21.925781 L 125.398438 18.398438 C 127.015625 18.882812 128.539062 19.761719 129.816406 21.035156 C 133.921875 25.144531 133.921875 31.828125 129.816406 35.9375 Z M 129.816406 35.9375 " fill-opacity="1" fill-rule="nonzero"/></g><g clip-path="url(#6d3f144d3e)"><g clip-path="url(#dce86184fc)"><g transform="matrix(1, 0, 0, 1, 118, 24)"><g clip-path="url(#0b04db629b)"><g clip-path="url(#db9bbb113d)"><g clip-path="url(#48d356192c)"><path fill="#2b2b2b" d="M 0.859375 0.984375 L 7.875 0.984375 L 7.875 7.996094 L 0.859375 7.996094 Z M 0.859375 0.984375 " fill-opacity="1" fill-rule="nonzero"/></g></g></g></g></g></g><g clip-path="url(#18661410b5)"><path fill="#f9f1ee" d="M 121.492188 29.292969 L 120.074219 26.941406 C 119.777344 27.378906 119.601562 27.910156 119.601562 28.480469 C 119.601562 28.761719 119.644531 29.035156 119.726562 29.292969 Z M 121.492188 29.292969 " fill-opacity="1" fill-rule="nonzero"/></g><g clip-path="url(#ac6d226bed)"><path fill="#f9f1ee" d="M 122.085938 27.3125 L 124.851562 27.3125 C 124.496094 26.558594 123.808594 25.988281 122.976562 25.796875 Z M 122.085938 27.3125 " fill-opacity="1" fill-rule="nonzero"/></g><g clip-path="url(#dfaaabd4d1)"><path fill="#f9f1ee" d="M 121.199219 28.164062 L 122.625 25.738281 C 122.539062 25.730469 122.449219 25.726562 122.359375 25.726562 C 121.535156 25.726562 120.796875 26.085938 120.292969 26.660156 Z M 121.199219 28.164062 " fill-opacity="1" fill-rule="nonzero"/></g><g clip-path="url(#ac194df251)"><path fill="#f9f1ee" d="M 121.773438 31.148438 L 122.648438 29.628906 L 119.855469 29.628906 C 120.21875 30.425781 120.957031 31.015625 121.839844 31.1875 Z M 121.773438 31.148438 " fill-opacity="1" fill-rule="nonzero"/></g><g clip-path="url(#68571c9a42)"><path fill="#f9f1ee" d="M 123.21875 27.644531 L 124.609375 30.0625 C 124.925781 29.613281 125.113281 29.070312 125.113281 28.480469 C 125.113281 28.1875 125.066406 27.910156 124.984375 27.644531 Z M 123.21875 27.644531 " fill-opacity="1" fill-rule="nonzero"/></g><g clip-path="url(#18b2068e74)"><path fill="#f9f1ee" d="M 123.503906 28.804688 L 122.117188 31.222656 C 122.195312 31.230469 122.277344 31.234375 122.359375 31.234375 C 123.160156 31.234375 123.882812 30.890625 124.386719 30.339844 Z M 123.503906 28.804688 " fill-opacity="1" fill-rule="nonzero"/></g><g transform="matrix(1, 0, 0, 1, 62, 41)"><g clip-path="url(#ebfa1b2456)"><g fill="#2b2b2b" fill-opacity="1"><g transform="translate(1.245198, 11.056655)"><g><path d="M 2.984375 0.109375 C 2.460938 0.109375 2.003906 0.0234375 1.609375 -0.140625 C 1.222656 -0.316406 0.851562 -0.578125 0.5 -0.921875 C 0.46875 -0.953125 0.4375 -0.988281 0.40625 -1.03125 C 0.382812 -1.070312 0.375 -1.117188 0.375 -1.171875 C 0.375 -1.253906 0.40625 -1.332031 0.46875 -1.40625 C 0.539062 -1.476562 0.617188 -1.515625 0.703125 -1.515625 C 0.785156 -1.515625 0.859375 -1.476562 0.921875 -1.40625 C 1.191406 -1.113281 1.5 -0.890625 1.84375 -0.734375 C 2.1875 -0.585938 2.554688 -0.515625 2.953125 -0.515625 C 3.285156 -0.515625 3.582031 -0.566406 3.84375 -0.671875 C 4.101562 -0.773438 4.304688 -0.921875 4.453125 -1.109375 C 4.609375 -1.304688 4.6875 -1.535156 4.6875 -1.796875 C 4.6875 -2.109375 4.597656 -2.363281 4.421875 -2.5625 C 4.253906 -2.757812 4.023438 -2.921875 3.734375 -3.046875 C 3.453125 -3.179688 3.140625 -3.300781 2.796875 -3.40625 C 2.515625 -3.488281 2.242188 -3.582031 1.984375 -3.6875 C 1.734375 -3.789062 1.503906 -3.921875 1.296875 -4.078125 C 1.097656 -4.234375 0.941406 -4.425781 0.828125 -4.65625 C 0.722656 -4.882812 0.671875 -5.164062 0.671875 -5.5 C 0.671875 -5.863281 0.765625 -6.1875 0.953125 -6.46875 C 1.148438 -6.757812 1.425781 -6.984375 1.78125 -7.140625 C 2.144531 -7.304688 2.5625 -7.390625 3.03125 -7.390625 C 3.4375 -7.390625 3.828125 -7.316406 4.203125 -7.171875 C 4.585938 -7.035156 4.890625 -6.832031 5.109375 -6.5625 C 5.210938 -6.457031 5.265625 -6.359375 5.265625 -6.265625 C 5.265625 -6.191406 5.226562 -6.117188 5.15625 -6.046875 C 5.09375 -5.984375 5.019531 -5.953125 4.9375 -5.953125 C 4.863281 -5.953125 4.800781 -5.976562 4.75 -6.03125 C 4.632812 -6.175781 4.484375 -6.304688 4.296875 -6.421875 C 4.117188 -6.535156 3.921875 -6.625 3.703125 -6.6875 C 3.484375 -6.75 3.257812 -6.78125 3.03125 -6.78125 C 2.707031 -6.78125 2.414062 -6.726562 2.15625 -6.625 C 1.894531 -6.519531 1.6875 -6.375 1.53125 -6.1875 C 1.382812 -6 1.3125 -5.773438 1.3125 -5.515625 C 1.3125 -5.222656 1.394531 -4.984375 1.5625 -4.796875 C 1.726562 -4.609375 1.945312 -4.453125 2.21875 -4.328125 C 2.488281 -4.210938 2.773438 -4.101562 3.078125 -4 C 3.378906 -3.914062 3.664062 -3.816406 3.9375 -3.703125 C 4.207031 -3.597656 4.445312 -3.460938 4.65625 -3.296875 C 4.875 -3.140625 5.039062 -2.941406 5.15625 -2.703125 C 5.28125 -2.460938 5.34375 -2.160156 5.34375 -1.796875 C 5.34375 -1.441406 5.242188 -1.117188 5.046875 -0.828125 C 4.847656 -0.546875 4.570312 -0.320312 4.21875 -0.15625 C 3.863281 0.0078125 3.453125 0.0976562 2.984375 0.109375 Z M 2.984375 0.109375 "/></g></g></g><g fill="#2b2b2b" fill-opacity="1"><g transform="translate(9.39706, 11.056655)"><g><path d="M 3.140625 0 C 3.046875 0 2.96875 -0.03125 2.90625 -0.09375 C 2.84375 -0.15625 2.8125 -0.226562 2.8125 -0.3125 L 2.8125 -6.9375 L 3.46875 -6.9375 L 3.46875 -0.3125 C 3.46875 -0.226562 3.4375 -0.15625 3.375 -0.09375 C 3.3125 -0.03125 3.234375 0 3.140625 0 Z M 0.671875 -6.6875 C 0.585938 -6.6875 0.515625 -6.710938 0.453125 -6.765625 C 0.390625 -6.828125 0.359375 -6.90625 0.359375 -7 C 0.359375 -7.082031 0.390625 -7.148438 0.453125 -7.203125 C 0.515625 -7.253906 0.585938 -7.28125 0.671875 -7.28125 L 5.625 -7.28125 C 5.707031 -7.28125 5.78125 -7.253906 5.84375 -7.203125 C 5.90625 -7.148438 5.9375 -7.078125 5.9375 -6.984375 C 5.9375 -6.890625 5.90625 -6.816406 5.84375 -6.765625 C 5.78125 -6.710938 5.707031 -6.6875 5.625 -6.6875 Z M 0.671875 -6.6875 "/></g></g></g><g fill="#2b2b2b" fill-opacity="1"><g transform="translate(17.985541, 11.056655)"><g><path d="M 6.125 -7.28125 C 6.226562 -7.28125 6.304688 -7.25 6.359375 -7.1875 C 6.410156 -7.132812 6.4375 -7.0625 6.4375 -6.96875 L 6.4375 -2.65625 C 6.4375 -2.144531 6.316406 -1.679688 6.078125 -1.265625 C 5.835938 -0.847656 5.507812 -0.515625 5.09375 -0.265625 C 4.6875 -0.0234375 4.226562 0.09375 3.71875 0.09375 C 3.195312 0.09375 2.726562 -0.0234375 2.3125 -0.265625 C 1.90625 -0.515625 1.582031 -0.847656 1.34375 -1.265625 C 1.101562 -1.679688 0.984375 -2.144531 0.984375 -2.65625 L 0.984375 -6.96875 C 0.984375 -7.0625 1.007812 -7.132812 1.0625 -7.1875 C 1.125 -7.25 1.207031 -7.28125 1.3125 -7.28125 C 1.394531 -7.28125 1.46875 -7.25 1.53125 -7.1875 C 1.59375 -7.132812 1.625 -7.0625 1.625 -6.96875 L 1.625 -2.65625 C 1.625 -2.257812 1.71875 -1.898438 1.90625 -1.578125 C 2.101562 -1.265625 2.359375 -1.007812 2.671875 -0.8125 C 2.992188 -0.625 3.34375 -0.53125 3.71875 -0.53125 C 4.101562 -0.53125 4.453125 -0.625 4.765625 -0.8125 C 5.085938 -1.007812 5.34375 -1.265625 5.53125 -1.578125 C 5.726562 -1.898438 5.828125 -2.257812 5.828125 -2.65625 L 5.828125 -6.96875 C 5.828125 -7.0625 5.851562 -7.132812 5.90625 -7.1875 C 5.96875 -7.25 6.039062 -7.28125 6.125 -7.28125 Z M 6.125 -7.28125 "/></g></g></g><g fill="#2b2b2b" fill-opacity="1"><g transform="translate(27.70715, 11.056655)"><g><path d="M 3.9375 -7.28125 C 4.457031 -7.28125 4.910156 -7.179688 5.296875 -6.984375 C 5.679688 -6.796875 6 -6.53125 6.25 -6.1875 C 6.5 -5.84375 6.679688 -5.453125 6.796875 -5.015625 C 6.921875 -4.578125 6.984375 -4.117188 6.984375 -3.640625 C 6.984375 -2.972656 6.875 -2.363281 6.65625 -1.8125 C 6.4375 -1.257812 6.101562 -0.816406 5.65625 -0.484375 C 5.207031 -0.160156 4.632812 0 3.9375 0 L 1.296875 0 C 1.210938 0 1.140625 -0.03125 1.078125 -0.09375 C 1.015625 -0.15625 0.984375 -0.226562 0.984375 -0.3125 L 0.984375 -6.96875 C 0.984375 -7.050781 1.015625 -7.125 1.078125 -7.1875 C 1.140625 -7.25 1.210938 -7.28125 1.296875 -7.28125 Z M 3.84375 -0.609375 C 4.425781 -0.609375 4.898438 -0.742188 5.265625 -1.015625 C 5.628906 -1.285156 5.894531 -1.648438 6.0625 -2.109375 C 6.226562 -2.578125 6.3125 -3.085938 6.3125 -3.640625 C 6.3125 -4.046875 6.265625 -4.429688 6.171875 -4.796875 C 6.078125 -5.160156 5.929688 -5.484375 5.734375 -5.765625 C 5.535156 -6.046875 5.28125 -6.265625 4.96875 -6.421875 C 4.65625 -6.585938 4.28125 -6.671875 3.84375 -6.671875 L 1.5625 -6.671875 L 1.640625 -6.765625 L 1.640625 -0.515625 L 1.578125 -0.609375 Z M 3.84375 -0.609375 "/></g></g></g><g fill="#2b2b2b" fill-opacity="1"><g transform="translate(37.491134, 11.056655)"><g><path d="M 1.640625 -0.328125 C 1.628906 -0.234375 1.585938 -0.15625 1.515625 -0.09375 C 1.453125 -0.03125 1.378906 0 1.296875 0 C 1.203125 0 1.125 -0.03125 1.0625 -0.09375 C 1.007812 -0.15625 0.984375 -0.234375 0.984375 -0.328125 L 0.984375 -6.96875 C 0.984375 -7.050781 1.015625 -7.125 1.078125 -7.1875 C 1.140625 -7.25 1.21875 -7.28125 1.3125 -7.28125 C 1.394531 -7.28125 1.46875 -7.25 1.53125 -7.1875 C 1.601562 -7.125 1.640625 -7.050781 1.640625 -6.96875 Z M 1.640625 -0.328125 "/></g></g></g><g fill="#2b2b2b" fill-opacity="1"><g transform="translate(42.399531, 11.056655)"><g><path d="M 7.46875 -3.640625 C 7.46875 -3.085938 7.382812 -2.582031 7.21875 -2.125 C 7.050781 -1.675781 6.8125 -1.285156 6.5 -0.953125 C 6.1875 -0.617188 5.816406 -0.359375 5.390625 -0.171875 C 4.960938 0.015625 4.492188 0.109375 3.984375 0.109375 C 3.472656 0.109375 3.003906 0.015625 2.578125 -0.171875 C 2.160156 -0.359375 1.796875 -0.617188 1.484375 -0.953125 C 1.171875 -1.285156 0.925781 -1.675781 0.75 -2.125 C 0.582031 -2.582031 0.5 -3.085938 0.5 -3.640625 C 0.5 -4.191406 0.582031 -4.691406 0.75 -5.140625 C 0.925781 -5.597656 1.171875 -5.992188 1.484375 -6.328125 C 1.796875 -6.671875 2.160156 -6.929688 2.578125 -7.109375 C 3.003906 -7.296875 3.472656 -7.390625 3.984375 -7.390625 C 4.492188 -7.390625 4.960938 -7.296875 5.390625 -7.109375 C 5.816406 -6.929688 6.1875 -6.671875 6.5 -6.328125 C 6.8125 -5.992188 7.050781 -5.597656 7.21875 -5.140625 C 7.382812 -4.691406 7.46875 -4.191406 7.46875 -3.640625 Z M 6.8125 -3.640625 C 6.8125 -4.253906 6.691406 -4.796875 6.453125 -5.265625 C 6.210938 -5.734375 5.878906 -6.097656 5.453125 -6.359375 C 5.023438 -6.628906 4.535156 -6.765625 3.984375 -6.765625 C 3.429688 -6.765625 2.941406 -6.628906 2.515625 -6.359375 C 2.097656 -6.097656 1.769531 -5.734375 1.53125 -5.265625 C 1.289062 -4.796875 1.171875 -4.253906 1.171875 -3.640625 C 1.171875 -3.023438 1.289062 -2.484375 1.53125 -2.015625 C 1.769531 -1.546875 2.097656 -1.175781 2.515625 -0.90625 C 2.941406 -0.644531 3.429688 -0.515625 3.984375 -0.515625 C 4.535156 -0.515625 5.023438 -0.644531 5.453125 -0.90625 C 5.878906 -1.175781 6.210938 -1.546875 6.453125 -2.015625 C 6.691406 -2.484375 6.8125 -3.023438 6.8125 -3.640625 Z M 6.8125 -3.640625 "/></g></g></g></g></g></svg>